<!-- Generator: Adobe Illustrator 21.0.2, SVG Export Plug-In  -->
<svg version="1.1"
	 xmlns="http://www.w3.org/2000/svg" xmlns:xlink="http://www.w3.org/1999/xlink" xmlns:a="http://ns.adobe.com/AdobeSVGViewerExtensions/3.0/"
	 x="0px" y="0px" width="52.1px" height="68.2px" viewBox="0 0 52.1 68.2" style="enable-background:new 0 0 52.1 68.2;"
	 xml:space="preserve">
<style type="text/css">
	.st0{fill:#DA2627;}
</style>
<defs>
</defs>
<g>
	<path class="st0" d="M52.1,68.2H0V0h52.1V68.2z M1,67.2h50.1V1H1V67.2z"/>
</g>
<path class="st0" d="M48.8,51.2c-4.1,0-7.2,0-10.7,0c-5-10-16.4-31.7-16.4-31.7s3.7-8.1,5.3-11.8C34.5,22.5,41.5,36.6,48.8,51.2z"/>
<path class="st0" d="M4.6,51c0,0,3-3.1,4.3-4.8c1.4-1.8,4-5.8,4-5.8C15.6,44.2,18,48,22.5,51C16,51,10.5,51,4.6,51z"/>
</svg>