<svg xmlns="http://www.w3.org/2000/svg" xmlns:xlink="http://www.w3.org/1999/xlink" preserveAspectRatio="xMidYMid" width="108" height="108" viewBox="0 0 108 108">
  <defs>
    <style>
      .cls-1 {
        fill: #4fbf9f;
      }

      .cls-2 {
        fill: #f16051;
      }

      .cls-3 {
        fill: #2ea2db;
      }

      .cls-4 {
        fill: #fdbf5e;
      }

      .cls-5 {
        fill: #e2e7e9;
      }

      .cls-5, .cls-6 {
        fill-rule: evenodd;
      }

      .cls-6 {
        fill: #2676fe;
      }
    </style>
  </defs>
  <circle cx="96" cy="96" r="11" class="cls-1"/>
  <circle cx="96" cy="13" r="11" class="cls-2"/>
  <circle cx="13" cy="13" r="11" class="cls-3"/>
  <circle cx="13" cy="95" r="11" class="cls-4"/>
  <path d="M84.000,61.000 L76.000,76.000 L65.000,82.000 L62.000,83.000 L66.000,74.000 L70.000,59.000 L71.000,46.000 L65.000,33.000 L60.000,25.000 L68.000,26.000 L76.000,32.000 L83.000,43.000 L85.000,53.000 L84.000,61.000 ZM36.000,46.000 L37.000,59.000 L41.000,74.000 L45.000,83.000 L42.000,82.000 L31.000,76.000 L23.000,61.000 L22.000,53.000 L24.000,43.000 L31.000,32.000 L39.000,26.000 L47.000,25.000 L42.000,33.000 L36.000,46.000 Z" class="cls-5"/>
  <path d="M101.000,71.000 C99.895,71.000 99.000,70.105 99.000,69.000 C99.000,67.895 99.895,67.000 101.000,67.000 C102.105,67.000 103.000,67.895 103.000,69.000 C103.000,70.105 102.105,71.000 101.000,71.000 ZM101.000,41.000 C99.895,41.000 99.000,40.105 99.000,39.000 C99.000,37.895 99.895,37.000 101.000,37.000 C102.105,37.000 103.000,37.895 103.000,39.000 C103.000,40.105 102.105,41.000 101.000,41.000 ZM101.000,56.000 C99.895,56.000 99.000,55.105 99.000,54.000 C99.000,52.895 99.895,52.000 101.000,52.000 C102.105,52.000 103.000,52.895 103.000,54.000 C103.000,55.105 102.105,56.000 101.000,56.000 ZM7.000,37.000 C8.105,37.000 9.000,37.895 9.000,39.000 C9.000,40.105 8.105,41.000 7.000,41.000 C5.895,41.000 5.000,40.105 5.000,39.000 C5.000,37.895 5.895,37.000 7.000,37.000 ZM7.000,67.000 C8.105,67.000 9.000,67.895 9.000,69.000 C9.000,70.105 8.105,71.000 7.000,71.000 C5.895,71.000 5.000,70.105 5.000,69.000 C5.000,67.895 5.895,67.000 7.000,67.000 ZM7.000,52.000 C8.105,52.000 9.000,52.895 9.000,54.000 C9.000,55.105 8.105,56.000 7.000,56.000 C5.895,56.000 5.000,55.105 5.000,54.000 C5.000,52.895 5.895,52.000 7.000,52.000 ZM95.500,25.000 C93.031,25.000 90.735,24.274 88.797,23.039 L79.255,32.767 C84.085,38.506 87.000,45.911 87.000,54.000 C87.000,62.182 84.015,69.663 79.084,75.430 L88.569,85.100 C90.553,83.775 92.935,83.000 95.500,83.000 C102.404,83.000 108.000,88.596 108.000,95.500 C108.000,102.404 102.404,108.000 95.500,108.000 C88.596,108.000 83.000,102.404 83.000,95.500 C83.000,92.600 83.996,89.939 85.653,87.818 L76.319,78.302 C70.444,83.701 62.608,87.000 54.000,87.000 C45.616,87.000 37.967,83.868 32.145,78.716 L22.645,88.217 C24.121,90.269 25.000,92.779 25.000,95.500 C25.000,102.404 19.404,108.000 12.500,108.000 C5.596,108.000 -0.000,102.404 -0.000,95.500 C-0.000,88.596 5.596,83.000 12.500,83.000 C15.221,83.000 17.731,83.879 19.783,85.355 L29.284,75.855 C24.132,70.033 21.000,62.384 21.000,54.000 C21.000,45.607 24.139,37.951 29.299,32.128 L19.802,22.631 C17.747,24.115 15.229,25.000 12.500,25.000 C5.596,25.000 -0.000,19.404 -0.000,12.500 C-0.000,5.596 5.596,-0.000 12.500,-0.000 C19.404,-0.000 25.000,5.596 25.000,12.500 C25.000,15.229 24.115,17.747 22.631,19.802 L32.128,29.299 C37.951,24.139 45.607,21.000 54.000,21.000 C62.718,21.000 70.642,24.387 76.541,29.909 L85.839,20.430 C84.065,18.272 83.000,15.511 83.000,12.500 C83.000,5.596 88.596,-0.000 95.500,-0.000 C102.404,-0.000 108.000,5.596 108.000,12.500 C108.000,19.404 102.404,25.000 95.500,25.000 ZM95.500,104.000 C100.194,104.000 104.000,100.194 104.000,95.500 C104.000,90.806 100.194,87.000 95.500,87.000 C90.806,87.000 87.000,90.806 87.000,95.500 C87.000,100.194 90.806,104.000 95.500,104.000 ZM12.500,87.000 C7.806,87.000 4.000,90.806 4.000,95.500 C4.000,100.194 7.806,104.000 12.500,104.000 C17.194,104.000 21.000,100.194 21.000,95.500 C21.000,90.806 17.194,87.000 12.500,87.000 ZM12.500,4.000 C7.806,4.000 4.000,7.806 4.000,12.500 C4.000,17.194 7.806,21.000 12.500,21.000 C17.194,21.000 21.000,17.194 21.000,12.500 C21.000,7.806 17.194,4.000 12.500,4.000 ZM32.141,72.997 L32.146,72.992 L35.008,75.854 L35.004,75.858 C37.132,77.710 39.522,79.268 42.129,80.440 C40.331,77.487 38.859,74.320 37.714,71.000 L30.534,71.000 C31.037,71.692 31.581,72.352 32.141,72.997 ZM28.096,67.000 L36.527,67.000 C35.640,63.467 35.112,59.791 35.035,56.000 L25.074,56.000 C25.343,59.938 26.409,63.652 28.096,67.000 ZM28.080,41.000 C26.394,44.345 25.344,48.064 25.075,52.000 L35.113,52.000 C35.351,48.200 36.016,44.518 37.067,41.000 L28.080,41.000 ZM30.536,37.000 L38.442,37.000 C39.875,33.385 41.710,29.973 43.918,26.838 C38.512,28.846 33.872,32.419 30.536,37.000 ZM52.000,25.086 C51.411,25.133 50.826,25.195 50.245,25.270 C47.181,28.747 44.642,32.698 42.757,37.000 L52.000,37.000 L52.000,25.086 ZM52.000,41.000 L41.234,41.000 C40.086,44.496 39.374,48.185 39.120,52.000 L52.000,52.000 L52.000,41.000 ZM52.000,56.000 L39.021,56.000 C39.104,59.803 39.666,63.486 40.636,67.000 L52.000,67.000 L52.000,56.000 ZM52.000,71.000 L41.964,71.000 C43.539,75.136 45.684,78.991 48.341,82.439 C49.534,82.675 50.760,82.812 52.000,82.899 L52.000,71.000 ZM79.916,41.000 L71.001,41.000 C72.029,44.520 72.672,48.203 72.895,52.000 L82.925,52.000 C82.655,48.064 81.603,44.346 79.916,41.000 ZM79.904,67.000 C81.590,63.652 82.656,59.938 82.925,56.000 L72.960,56.000 C72.872,59.791 72.338,63.467 71.448,67.000 L79.904,67.000 ZM77.467,71.000 L70.260,71.000 C69.114,74.324 67.644,77.495 65.848,80.451 C70.503,78.363 74.501,75.080 77.467,71.000 ZM56.000,82.899 C57.234,82.812 58.455,82.676 59.643,82.442 C62.292,78.992 64.432,75.136 66.008,71.000 L56.000,71.000 L56.000,82.899 ZM56.000,67.000 L67.339,67.000 C68.312,63.486 68.881,59.803 68.976,56.000 L56.000,56.000 L56.000,67.000 ZM56.000,52.000 L68.888,52.000 C68.650,48.187 67.961,44.498 66.839,41.000 L56.000,41.000 L56.000,52.000 ZM56.000,25.086 L56.000,37.000 L65.349,37.000 C63.515,32.725 61.045,28.791 58.059,25.317 C57.378,25.221 56.692,25.142 56.000,25.086 ZM64.361,26.940 C66.496,30.051 68.271,33.428 69.657,37.000 L77.462,37.000 C74.183,32.497 69.648,28.966 64.361,26.940 ZM95.500,4.000 C90.806,4.000 87.000,7.806 87.000,12.500 C87.000,17.194 90.806,21.000 95.500,21.000 C100.194,21.000 104.000,17.194 104.000,12.500 C104.000,7.806 100.194,4.000 95.500,4.000 ZM69.000,9.000 C67.895,9.000 67.000,8.105 67.000,7.000 C67.000,5.895 67.895,5.000 69.000,5.000 C70.105,5.000 71.000,5.895 71.000,7.000 C71.000,8.105 70.105,9.000 69.000,9.000 ZM54.000,9.000 C52.895,9.000 52.000,8.105 52.000,7.000 C52.000,5.895 52.895,5.000 54.000,5.000 C55.105,5.000 56.000,5.895 56.000,7.000 C56.000,8.105 55.105,9.000 54.000,9.000 ZM39.000,9.000 C37.895,9.000 37.000,8.105 37.000,7.000 C37.000,5.895 37.895,5.000 39.000,5.000 C40.105,5.000 41.000,5.895 41.000,7.000 C41.000,8.105 40.105,9.000 39.000,9.000 ZM39.000,99.000 C40.105,99.000 41.000,99.895 41.000,101.000 C41.000,102.105 40.105,103.000 39.000,103.000 C37.895,103.000 37.000,102.105 37.000,101.000 C37.000,99.895 37.895,99.000 39.000,99.000 ZM54.000,99.000 C55.105,99.000 56.000,99.895 56.000,101.000 C56.000,102.105 55.105,103.000 54.000,103.000 C52.895,103.000 52.000,102.105 52.000,101.000 C52.000,99.895 52.895,99.000 54.000,99.000 ZM69.000,99.000 C70.105,99.000 71.000,99.895 71.000,101.000 C71.000,102.105 70.105,103.000 69.000,103.000 C67.895,103.000 67.000,102.105 67.000,101.000 C67.000,99.895 67.895,99.000 69.000,99.000 Z" class="cls-6"/>
</svg>
