<svg xmlns="http://www.w3.org/2000/svg" xmlns:xlink="http://www.w3.org/1999/xlink" preserveAspectRatio="xMidYMid" width="86" height="106" viewBox="0 0 86 106">
  <defs>
    <style>
      .cls-1 {
        fill: #a7e5f7;
      }

      .cls-1, .cls-2, .cls-3 {
        fill-rule: evenodd;
      }

      .cls-2 {
        fill: #e1e6e9;
      }

      .cls-3 {
        fill: #2a7cfc;
      }
    </style>
  </defs>
  <path d="M8.000,99.000 L8.000,28.625 L29.625,7.000 L78.000,7.000 L78.000,99.000 L8.000,99.000 ZM22.000,77.000 C18.686,77.000 16.000,79.686 16.000,83.000 C16.000,86.314 18.686,89.000 22.000,89.000 C25.314,89.000 28.000,86.314 28.000,83.000 C28.000,79.686 25.314,77.000 22.000,77.000 ZM65.000,89.000 C68.314,89.000 71.000,86.314 71.000,83.000 C71.000,79.686 68.314,77.000 65.000,77.000 C61.686,77.000 59.000,79.686 59.000,83.000 C59.000,86.314 61.686,89.000 65.000,89.000 ZM72.000,34.000 L47.000,34.000 L47.000,49.000 L72.000,49.000 L72.000,34.000 Z" class="cls-1"/>
  <path d="M29.000,7.000 L29.000,28.000 L8.000,28.000 L29.000,7.000 Z" class="cls-2"/>
  <path d="M-0.000,106.000 L-0.000,23.625 L23.625,0.000 L86.000,0.000 L86.000,106.000 L-0.000,106.000 ZM82.000,4.000 L26.625,4.000 L4.000,26.625 L4.000,102.000 L82.000,102.000 L82.000,4.000 ZM21.500,74.000 C25.682,74.000 29.150,77.022 29.860,81.000 L45.000,81.000 L45.000,78.000 L51.000,83.000 L45.000,87.000 L45.000,84.000 L29.860,84.000 C29.150,87.978 25.682,91.000 21.500,91.000 C16.806,91.000 13.000,87.194 13.000,82.500 C13.000,77.806 16.806,74.000 21.500,74.000 ZM21.500,87.000 C23.985,87.000 26.000,84.985 26.000,82.500 C26.000,80.015 23.985,78.000 21.500,78.000 C19.015,78.000 17.000,80.015 17.000,82.500 C17.000,84.985 19.015,87.000 21.500,87.000 ZM63.000,74.140 L63.000,61.000 L60.000,61.000 L65.000,55.000 L69.000,61.000 L66.000,61.000 L66.000,74.140 C69.978,74.850 73.000,78.318 73.000,82.500 C73.000,87.194 69.194,91.000 64.500,91.000 C59.806,91.000 56.000,87.194 56.000,82.500 C56.000,78.318 59.022,74.850 63.000,74.140 ZM64.500,87.000 C66.985,87.000 69.000,84.985 69.000,82.500 C69.000,80.015 66.985,78.000 64.500,78.000 C62.015,78.000 60.000,80.015 60.000,82.500 C60.000,84.985 62.015,87.000 64.500,87.000 ZM46.000,43.000 L42.000,43.000 C42.000,43.000 26.375,43.781 24.000,62.000 L24.000,65.000 L27.000,65.000 L23.000,71.000 L18.000,65.000 L21.000,65.000 L21.000,62.000 C21.000,62.000 22.000,43.187 42.000,40.000 L46.000,40.000 L46.000,33.000 L73.000,33.000 L73.000,51.000 L46.000,51.000 L46.000,43.000 ZM50.000,47.000 L69.000,47.000 L69.000,37.000 L50.000,37.000 L50.000,47.000 ZM63.000,17.000 C61.895,17.000 61.000,16.105 61.000,15.000 C61.000,13.895 61.895,13.000 63.000,13.000 C64.105,13.000 65.000,13.895 65.000,15.000 C65.000,16.105 64.105,17.000 63.000,17.000 ZM53.000,17.000 C51.895,17.000 51.000,16.105 51.000,15.000 C51.000,13.895 51.895,13.000 53.000,13.000 C54.105,13.000 55.000,13.895 55.000,15.000 C55.000,16.105 54.105,17.000 53.000,17.000 ZM43.000,17.000 C41.895,17.000 41.000,16.105 41.000,15.000 C41.000,13.895 41.895,13.000 43.000,13.000 C44.105,13.000 45.000,13.895 45.000,15.000 C45.000,16.105 44.105,17.000 43.000,17.000 Z" class="cls-3"/>
</svg>
