<svg xmlns="http://www.w3.org/2000/svg" xmlns:xlink="http://www.w3.org/1999/xlink" preserveAspectRatio="xMidYMid" width="96" height="108" viewBox="0 0 96 108">
  <defs>
    <style>
      .cls-1 {
        fill: #e2e7ea;
      }

      .cls-1, .cls-2 {
        fill-rule: evenodd;
      }

      .cls-2 {
        fill: #2577fe;
      }
    </style>
  </defs>
  <path d="M28.233,21.005 C23.137,26.313 21.371,33.525 21.000,41.456 C20.207,58.401 37.244,75.779 54.544,75.000 C62.476,74.643 70.683,72.859 75.991,67.763 L28.233,21.005 Z" class="cls-1"/>
  <path d="M87.262,53.262 L84.799,50.799 C89.866,45.732 93.000,38.732 93.000,31.000 C93.000,15.536 80.464,3.000 65.000,3.000 C57.268,3.000 50.268,6.134 45.201,11.201 L42.738,8.738 C48.394,3.329 56.056,-0.000 64.500,-0.000 C81.897,-0.000 96.000,14.103 96.000,31.500 C96.000,39.944 92.671,47.606 87.262,53.262 ZM49.444,15.444 C53.425,11.462 58.925,9.000 65.000,9.000 C77.150,9.000 87.000,18.850 87.000,31.000 C87.000,37.075 84.538,42.575 80.556,46.556 L78.435,44.435 C81.873,40.997 84.000,36.247 84.000,31.000 C84.000,20.507 75.493,12.000 65.000,12.000 C59.753,12.000 55.003,14.127 51.565,17.565 L49.444,15.444 ZM64.500,22.000 C62.131,22.000 59.970,22.872 58.306,24.306 L56.185,22.185 C58.395,20.210 61.303,19.000 64.500,19.000 C71.404,19.000 77.000,24.596 77.000,31.500 C77.000,34.697 75.790,37.605 73.815,39.815 L71.694,37.694 C73.128,36.030 74.000,33.869 74.000,31.500 C74.000,26.253 69.747,22.000 64.500,22.000 ZM61.575,33.037 C61.218,32.439 61.000,31.748 61.000,31.000 C61.000,28.791 62.791,27.000 65.000,27.000 C67.209,27.000 69.000,28.791 69.000,31.000 C69.000,33.209 67.209,35.000 65.000,35.000 C64.664,35.000 64.343,34.946 64.031,34.868 L58.186,40.064 L86.061,67.939 L85.037,68.963 L85.366,69.299 C77.818,77.124 67.231,82.000 55.500,82.000 C45.873,82.000 37.019,78.713 29.979,73.212 C29.874,76.638 27.315,79.421 24.000,79.901 L24.000,90.000 L30.000,90.000 C38.284,90.000 45.000,96.716 45.000,105.000 L45.000,107.000 L45.000,107.000 L45.000,108.000 L0.000,108.000 L0.000,107.000 L0.000,105.000 C0.000,96.716 6.716,90.000 15.000,90.000 L21.000,90.000 L21.000,79.675 C18.116,78.810 16.000,76.166 16.000,73.000 C16.000,69.207 19.022,66.136 22.788,66.021 C17.287,58.981 14.000,50.127 14.000,40.500 C14.000,28.679 18.951,18.021 26.882,10.462 L27.222,10.778 L28.061,9.939 L56.061,37.939 L61.575,33.037 ZM16.000,93.000 C9.158,93.000 3.563,98.289 3.050,105.000 L41.950,105.000 C41.437,98.289 35.842,93.000 29.000,93.000 L16.000,93.000 ZM19.000,73.000 C19.000,75.209 20.791,77.000 23.000,77.000 C25.209,77.000 27.000,75.209 27.000,73.000 C27.000,70.791 25.209,69.000 23.000,69.000 C20.791,69.000 19.000,70.791 19.000,73.000 ZM27.729,13.850 C21.088,20.767 17.000,30.154 17.000,40.500 C17.000,61.763 34.237,79.000 55.500,79.000 C65.846,79.000 75.228,74.907 82.145,68.266 L27.729,13.850 ZM50.500,62.000 C49.119,62.000 48.000,60.881 48.000,59.500 C48.000,58.119 49.119,57.000 50.500,57.000 C51.881,57.000 53.000,58.119 53.000,59.500 C53.000,60.881 51.881,62.000 50.500,62.000 ZM43.500,55.000 C42.119,55.000 41.000,53.881 41.000,52.500 C41.000,51.119 42.119,50.000 43.500,50.000 C44.881,50.000 46.000,51.119 46.000,52.500 C46.000,53.881 44.881,55.000 43.500,55.000 ZM36.500,48.000 C35.119,48.000 34.000,46.881 34.000,45.500 C34.000,44.119 35.119,43.000 36.500,43.000 C37.881,43.000 39.000,44.119 39.000,45.500 C39.000,46.881 37.881,48.000 36.500,48.000 Z" class="cls-2"/>
</svg>
