<svg xmlns="http://www.w3.org/2000/svg" xmlns:xlink="http://www.w3.org/1999/xlink" preserveAspectRatio="xMidYMid" width="24" height="12" viewBox="0 0 24 12">
  <defs>
    <style>
      .cls-1 {
        fill: #000;
        fill-rule: evenodd;
      }
    </style>
  </defs>
  <path d="M23.710,6.714 L18.716,11.709 C18.322,12.103 17.683,12.103 17.289,11.709 C16.895,11.314 16.895,10.676 17.289,10.281 L20.572,6.999 L1.000,6.999 C0.448,6.999 -0.000,6.551 -0.000,5.999 C-0.000,5.446 0.448,4.998 1.000,4.998 L20.573,4.998 L17.289,1.714 C16.895,1.320 16.895,0.682 17.289,0.287 C17.683,-0.106 18.322,-0.106 18.716,0.287 L23.710,5.282 C23.908,5.479 24.006,5.739 24.005,5.998 C24.006,6.257 23.908,6.516 23.710,6.714 Z" class="cls-1"/>
</svg>
