<svg xmlns="http://www.w3.org/2000/svg" xmlns:xlink="http://www.w3.org/1999/xlink" preserveAspectRatio="xMidYMid" width="24" height="12" viewBox="0 0 24 12">
  <defs>
    <style>
      .cls-1 {
        fill: #000;
        fill-rule: evenodd;
      }
    </style>
  </defs>
  <path d="M23.711,6.715 L18.716,11.709 C18.322,12.103 17.683,12.103 17.289,11.709 C16.895,11.315 16.895,10.676 17.289,10.282 L20.572,6.999 L1.000,6.999 C0.448,6.999 -0.000,6.551 -0.000,5.999 C-0.000,5.447 0.448,4.999 1.000,4.999 L20.573,4.999 L17.289,1.715 C16.895,1.320 16.895,0.682 17.289,0.287 C17.683,-0.106 18.322,-0.106 18.716,0.287 L23.711,5.283 C23.908,5.480 24.006,5.740 24.006,5.999 C24.006,6.258 23.908,6.517 23.711,6.715 Z" class="cls-1"/>
</svg>
