<!-- Generator: Adobe Illustrator 21.0.2, SVG Export Plug-In  -->
<svg version="1.1"
	 xmlns="http://www.w3.org/2000/svg" xmlns:xlink="http://www.w3.org/1999/xlink" xmlns:a="http://ns.adobe.com/AdobeSVGViewerExtensions/3.0/"
	 x="0px" y="0px" width="22px" height="22px" viewBox="0 0 22 22" style="enable-background:new 0 0 22 22;" xml:space="preserve">
<style type="text/css">
	.st0{fill:#2B7AFF;}
</style>
<defs>
</defs>
<path class="st0" d="M21,12h-1v9c0,0.6-0.5,1-1,1H3.1c-0.6,0-1-0.5-1-1v-9H1c-0.6,0-1-0.5-1-1V6.1c0-0.6,0.5-1,1-1h2.3
	C3.2,4.7,3,4.3,3,3.7C2.9,2.6,3.6,0.3,6.5,0C9.4-0.2,11,3.2,11,3.2s0,0,0.1,0c0,0,1.6-3.4,4.5-3.2c2.9,0.2,3.6,2.5,3.5,3.6
	c0,0.7-0.2,1.1-0.4,1.4H21c0.6,0,1,0.5,1,1V11C22,11.5,21.5,12,21,12z M12,20.1h6V12h-6V20.1z M4,20.1h6V12H4V20.1z M2,10h8V7H2V10z
	 M6.5,2C6.4,2,5,2,5,3.5C5,4.9,6.2,5,6.3,5h3.3C8.8,2.2,6.9,2,6.5,2z M17,3.5C17,2,15.6,2,15.6,2c-0.4,0-2.3,0.2-3.2,3h3.3
	C15.7,5,17,4.9,17,3.5z M20,7h-8v3h8V7z"/>
</svg>