<svg xmlns="http://www.w3.org/2000/svg" xmlns:xlink="http://www.w3.org/1999/xlink" preserveAspectRatio="xMidYMid" width="230" height="293" viewBox="0 0 230 293">
  <defs>
    <style>
      .cls-1, .cls-10 {
        fill: #45525b;
      }

      .cls-2 {
        fill: #586c7a;
      }

      .cls-3 {
        fill: #586c7b;
      }

      .cls-4 {
        fill: #ffdb74;
      }

      .cls-5 {
        fill: #fff;
      }

      .cls-10, .cls-11, .cls-12, .cls-13, .cls-14, .cls-15, .cls-16, .cls-17, .cls-5, .cls-6, .cls-7, .cls-8, .cls-9 {
        fill-rule: evenodd;
      }

      .cls-6 {
        fill: #eee;
      }

      .cls-7 {
        fill: #7f96a8;
      }

      .cls-8 {
        fill: #ff6d3b;
      }

      .cls-9 {
        fill: #576672;
      }

      .cls-11 {
        fill: #f86130;
      }

      .cls-12 {
        fill: #ff8d5b;
      }

      .cls-13 {
        fill: #4c5c6a;
      }

      .cls-14 {
        fill: #e1effa;
      }

      .cls-15 {
        fill: #798484;
      }

      .cls-16 {
        fill: #4c5d6c;
      }

      .cls-17 {
        fill: #56646f;
      }
    </style>
  </defs>
  <rect x="26" y="29" width="129" height="264" rx="10" ry="10" class="cls-1"/>
  <rect x="87" y="268" width="12" height="12" class="cls-2"/>
  <rect x="24" y="95" width="2" height="16" class="cls-3"/>
  <rect x="24" y="74" width="2" height="16" class="cls-3"/>
  <rect x="24" y="61" width="2" height="11" class="cls-3"/>
  <rect x="36" y="63" width="111" height="193" class="cls-4"/>
  <path d="M74.000,66.000 L76.000,45.000 L87.000,52.000 L74.000,66.000 ZM70.168,69.445 L72.168,66.445 L73.832,67.555 L71.832,70.555 L70.168,69.445 ZM67.857,78.514 L66.142,77.485 L69.142,72.485 L70.857,73.514 L67.857,78.514 ZM62.106,86.553 L64.106,82.553 L65.894,83.447 L63.894,87.447 L62.106,86.553 ZM61.981,97.196 L60.019,96.804 L61.019,91.804 L62.981,92.196 L61.981,97.196 ZM61.000,107.000 L59.000,107.000 L59.000,102.000 L61.000,102.000 L61.000,107.000 ZM54.200,127.400 L57.200,123.400 L58.800,124.600 L55.800,128.600 L54.200,127.400 ZM51.019,136.804 L52.019,131.804 L53.981,132.196 L52.981,137.196 L51.019,136.804 ZM62.800,111.400 L65.800,115.400 L64.429,116.429 L65.707,117.707 L62.707,120.707 L61.293,119.293 L64.108,116.478 L61.200,112.600 L62.800,111.400 ZM69.400,113.200 L73.400,110.200 L74.600,111.800 L70.600,114.800 L69.400,113.200 ZM74.514,121.142 L73.486,122.857 L68.486,119.857 L69.514,118.142 L74.514,121.142 ZM78.485,110.857 L79.514,109.143 L84.514,112.142 L83.485,113.857 L78.485,110.857 ZM83.600,118.800 L79.600,121.800 L78.400,120.200 L82.400,117.200 L83.600,118.800 Z" class="cls-5"/>
  <path d="M71.000,42.000 L48.000,29.000 L133.000,-0.000 L103.000,62.000 L75.000,45.000 L71.000,42.000 Z" class="cls-6"/>
  <path d="M123.000,7.000 L68.000,40.000 L74.000,66.000 L76.000,44.000 L123.000,7.000 Z" class="cls-7"/>
  <path d="M102.000,226.000 L111.000,219.000 L92.000,209.000 L98.000,224.000 L102.000,226.000 Z" class="cls-8"/>
  <path d="M65.000,220.000 L89.000,256.000 L121.000,256.000 L91.000,206.000 L65.000,220.000 Z" class="cls-9"/>
  <path d="M65.000,221.000 L73.000,232.000 L98.000,218.000 L91.000,206.000 L65.000,220.000 L65.000,221.000 Z" class="cls-10"/>
  <path d="M70.000,132.000 L106.000,199.000 L57.000,224.000 C57.000,224.000 45.875,228.875 37.000,224.000 C36.937,224.000 10.000,176.000 10.000,176.000 C10.000,176.000 12.750,162.250 25.000,156.000 C37.250,149.750 70.000,132.000 70.000,132.000 Z" class="cls-8"/>
  <path d="M100.000,188.000 L49.000,214.000 C49.000,214.000 39.125,218.875 33.000,218.000 C33.000,218.031 35.844,222.812 36.000,223.000 C36.375,223.812 44.750,229.125 55.000,224.000 C65.250,218.875 106.000,199.000 106.000,199.000 L100.000,188.000 Z" class="cls-11"/>
  <path d="M58.000,145.000 L30.000,160.000 C30.000,160.000 23.500,163.250 22.000,169.000 C22.000,168.937 18.000,177.000 18.000,177.000 C18.000,177.000 17.031,180.906 20.000,182.000 C22.969,183.094 25.000,180.000 25.000,180.000 L27.000,175.000 C27.000,175.000 28.500,169.000 35.000,166.000 C41.500,163.000 61.000,152.000 61.000,152.000 C61.000,152.000 64.281,150.281 63.000,147.000 C61.687,143.719 58.000,145.000 58.000,145.000 Z" class="cls-12"/>
  <path d="M12.000,178.000 L37.000,223.000 L17.000,227.000 L15.000,223.000 L20.000,220.000 L17.000,215.000 L12.000,217.000 L10.000,214.000 L15.000,211.000 L12.000,206.000 L8.000,209.000 L6.000,206.000 L10.000,203.000 L7.000,197.000 L3.000,200.000 L-0.000,196.000 L11.000,176.000 L12.000,178.000 Z" class="cls-13"/>
  <path d="M137.000,51.000 L211.000,190.000 C211.000,190.000 167.000,173.200 105.000,198.000 C105.000,198.200 71.000,133.000 71.000,133.000 C71.000,133.000 122.200,105.400 137.000,51.000 Z" class="cls-14"/>
  <path d="M82.000,135.000 C82.000,135.000 79.594,137.531 82.000,141.000 C84.781,144.562 88.000,143.000 88.000,143.000 C88.000,143.000 138.875,107.000 146.000,67.000 C142.625,59.250 141.000,56.000 141.000,56.000 C141.000,56.000 130.125,103.250 82.000,135.000 Z" class="cls-5"/>
  <path d="M177.517,96.144 C189.034,97.399 198.000,107.149 198.000,119.000 C198.000,123.372 196.758,127.444 194.640,130.925 L177.517,96.144 Z" class="cls-8"/>
  <path d="M215.000,124.000 L215.000,122.000 L230.000,122.000 L230.000,124.000 L215.000,124.000 ZM213.553,95.106 L225.553,89.106 L226.447,90.894 L214.447,96.894 L213.553,95.106 ZM191.136,78.496 L198.136,66.496 L199.864,67.504 L192.864,79.504 L191.136,78.496 Z" class="cls-15"/>
  <path d="M137.000,50.000 L211.000,191.000 C211.000,191.000 212.750,191.937 214.000,191.000 C215.250,190.062 221.000,183.000 221.000,183.000 C221.000,183.000 224.375,178.500 221.000,173.000 C217.625,167.500 153.000,46.000 153.000,46.000 C153.000,46.000 150.500,43.937 146.000,46.000 C141.500,48.062 137.000,50.000 137.000,50.000 Z" class="cls-16"/>
  <path d="M177.500,283.000 C152.371,283.000 132.000,262.629 132.000,237.500 C132.000,235.436 132.151,233.408 132.417,231.417 L113.000,212.000 L139.814,212.000 C147.996,199.931 161.821,192.000 177.500,192.000 C202.629,192.000 223.000,212.371 223.000,237.500 C223.000,262.629 202.629,283.000 177.500,283.000 Z" class="cls-6"/>
  <path d="M199.500,244.000 C196.462,244.000 194.000,241.538 194.000,238.500 C194.000,235.462 196.462,233.000 199.500,233.000 C202.538,233.000 205.000,235.462 205.000,238.500 C205.000,241.538 202.538,244.000 199.500,244.000 ZM177.500,244.000 C174.462,244.000 172.000,241.538 172.000,238.500 C172.000,235.462 174.462,233.000 177.500,233.000 C180.538,233.000 183.000,235.462 183.000,238.500 C183.000,241.538 180.538,244.000 177.500,244.000 ZM155.500,244.000 C152.462,244.000 150.000,241.538 150.000,238.500 C150.000,235.462 152.462,233.000 155.500,233.000 C158.538,233.000 161.000,235.462 161.000,238.500 C161.000,241.538 158.538,244.000 155.500,244.000 Z" class="cls-17"/>
</svg>
