<svg xmlns="http://www.w3.org/2000/svg" xmlns:xlink="http://www.w3.org/1999/xlink" preserveAspectRatio="xMidYMid" width="297" height="275" viewBox="0 0 297 275">
  <defs>
    <style>
      .cls-1 {
        fill: #f77a42;
      }

      .cls-1, .cls-2, .cls-3 {
        fill-rule: evenodd;
      }

      .cls-2 {
        fill: #ebebeb;
      }

      .cls-3 {
        fill: #192e2d;
      }
    </style>
  </defs>
  <path d="M111.000,173.000 L67.000,217.000 L67.000,173.000 L0.000,173.000 L0.000,-0.000 L202.000,-0.000 L202.000,173.000 L111.000,173.000 Z" class="cls-1"/>
  <path d="M199.424,229.926 L200.000,231.000 L200.000,275.000 L134.081,208.236 C110.890,189.826 96.000,161.411 96.000,129.500 C96.000,73.995 140.995,29.000 196.500,29.000 C252.005,29.000 297.000,73.995 297.000,129.500 C297.000,184.024 253.572,228.375 199.424,229.926 Z" class="cls-2"/>
  <path d="M238.000,139.000 C231.925,139.000 227.000,134.075 227.000,128.000 C227.000,121.925 231.925,117.000 238.000,117.000 C244.075,117.000 249.000,121.925 249.000,128.000 C249.000,134.075 244.075,139.000 238.000,139.000 ZM198.000,139.000 C191.925,139.000 187.000,134.075 187.000,128.000 C187.000,121.925 191.925,117.000 198.000,117.000 C204.075,117.000 209.000,121.925 209.000,128.000 C209.000,134.075 204.075,139.000 198.000,139.000 ZM160.000,139.000 C153.925,139.000 149.000,134.075 149.000,128.000 C149.000,121.925 153.925,117.000 160.000,117.000 C166.075,117.000 171.000,121.925 171.000,128.000 C171.000,134.075 166.075,139.000 160.000,139.000 Z" class="cls-3"/>
</svg>
