<svg xmlns="http://www.w3.org/2000/svg" xmlns:xlink="http://www.w3.org/1999/xlink" preserveAspectRatio="xMidYMid" width="264" height="288" viewBox="0 0 264 288">
  <defs>
    <style>
      .cls-1 {
        fill: #e7edf2;
      }

      .cls-1, .cls-10, .cls-11, .cls-12, .cls-13, .cls-2, .cls-3, .cls-4, .cls-5, .cls-8, .cls-9 {
        fill-rule: evenodd;
      }

      .cls-2 {
        fill: #f3f6f8;
      }

      .cls-3 {
        fill: #afc8db;
      }

      .cls-4 {
        fill: #b6b3b9;
      }

      .cls-5 {
        fill: #92adbf;
      }

      .cls-6 {
        fill: #1c2f2e;
      }

      .cls-13, .cls-7 {
        fill: #21d0db;
      }

      .cls-8 {
        fill: #d6d8de;
      }

      .cls-9 {
        fill: #0099d4;
      }

      .cls-10 {
        fill: #004895;
      }

      .cls-11 {
        fill: #1da6ce;
      }

      .cls-12 {
        fill: #0095d3;
      }
    </style>
  </defs>
  <path d="M146.000,274.000 L49.000,274.000 L44.000,274.000 L15.000,274.000 L15.000,258.000 L29.000,258.000 L29.000,87.000 C29.000,78.716 35.716,72.000 44.000,72.000 L146.000,72.000 C154.284,72.000 161.000,78.716 161.000,87.000 L161.000,259.000 C161.000,267.284 154.284,274.000 146.000,274.000 Z" class="cls-1"/>
  <path d="M219.000,203.000 L130.000,203.000 L118.000,203.000 L90.000,203.000 L90.000,191.000 L103.301,191.000 C103.104,190.031 103.000,189.028 103.000,188.000 L103.000,15.000 C103.000,6.716 109.716,0.000 118.000,0.000 L219.000,0.000 C227.284,0.000 234.000,6.716 234.000,15.000 L234.000,188.000 C234.000,196.284 227.284,203.000 219.000,203.000 Z" class="cls-2"/>
  <path d="M131.000,15.000 L131.000,13.500 C131.000,7.134 126.588,1.811 120.658,0.387 C121.734,0.142 122.850,-0.000 124.000,-0.000 L249.000,-0.000 C257.284,-0.000 264.000,6.716 264.000,15.000 L131.000,15.000 Z" class="cls-3"/>
  <path d="M29.000,258.000 L29.000,258.500 C29.000,266.508 22.508,273.000 14.500,273.000 C6.492,273.000 -0.000,266.508 -0.000,258.500 L-0.000,258.000 L29.000,258.000 Z" class="cls-3"/>
  <path d="M88.000,203.000 L81.000,203.000 C72.716,203.000 66.000,196.284 66.000,188.000 L66.000,184.000 L66.000,91.000 L66.000,87.000 C66.000,79.743 60.847,73.691 54.000,72.301 L54.000,72.000 L81.000,72.000 L88.000,72.000 L103.000,72.000 L103.000,87.000 L103.000,91.000 L103.000,188.000 C103.000,196.284 96.284,203.000 88.000,203.000 Z" class="cls-3"/>
  <path d="M228.000,189.000 L179.000,189.000 C177.895,189.000 177.000,188.105 177.000,187.000 L177.000,184.000 C177.000,182.895 177.895,182.000 179.000,182.000 L228.000,182.000 C229.105,182.000 230.000,182.895 230.000,184.000 L230.000,187.000 C230.000,188.105 229.105,189.000 228.000,189.000 ZM228.000,175.000 L179.000,175.000 C177.895,175.000 177.000,174.105 177.000,173.000 L177.000,170.000 C177.000,168.895 177.895,168.000 179.000,168.000 L228.000,168.000 C229.105,168.000 230.000,168.895 230.000,170.000 L230.000,173.000 C230.000,174.105 229.105,175.000 228.000,175.000 ZM228.000,161.000 L179.000,161.000 C177.895,161.000 177.000,160.105 177.000,159.000 L177.000,156.000 C177.000,154.895 177.895,154.000 179.000,154.000 L228.000,154.000 C229.105,154.000 230.000,154.895 230.000,156.000 L230.000,159.000 C230.000,160.105 229.105,161.000 228.000,161.000 ZM193.000,135.000 L120.000,135.000 C119.448,135.000 119.000,134.552 119.000,134.000 C119.000,133.448 119.448,133.000 120.000,133.000 L193.000,133.000 C193.552,133.000 194.000,133.448 194.000,134.000 C194.000,134.552 193.552,135.000 193.000,135.000 ZM175.000,166.000 C175.552,166.000 176.000,166.448 176.000,167.000 C176.000,167.552 175.552,168.000 175.000,168.000 L119.000,168.000 C118.448,168.000 118.000,167.552 118.000,167.000 C118.000,166.448 118.448,166.000 119.000,166.000 L175.000,166.000 ZM119.000,172.000 L175.000,172.000 C175.552,172.000 176.000,172.448 176.000,173.000 C176.000,173.552 175.552,174.000 175.000,174.000 L119.000,174.000 C118.448,174.000 118.000,173.552 118.000,173.000 C118.000,172.448 118.448,172.000 119.000,172.000 ZM119.000,178.000 L175.000,178.000 C175.552,178.000 176.000,178.448 176.000,179.000 C176.000,179.552 175.552,180.000 175.000,180.000 L119.000,180.000 C118.448,180.000 118.000,179.552 118.000,179.000 C118.000,178.448 118.448,178.000 119.000,178.000 Z" class="cls-4"/>
  <path d="M221.000,215.774 L221.000,229.000 L223.000,229.000 C224.105,229.000 225.000,229.895 225.000,231.000 C225.000,232.105 224.105,233.000 223.000,233.000 L211.000,233.000 C209.895,233.000 209.000,232.105 209.000,231.000 C209.000,229.895 209.895,229.000 211.000,229.000 L213.000,229.000 L213.000,215.850 C190.061,214.063 172.000,194.897 172.000,171.500 C172.000,146.923 191.923,127.000 216.500,127.000 C241.077,127.000 261.000,146.923 261.000,171.500 C261.000,194.558 243.463,213.518 221.000,215.774 ZM216.500,133.000 C195.237,133.000 178.000,150.237 178.000,171.500 C178.000,192.763 195.237,210.000 216.500,210.000 C237.763,210.000 255.000,192.763 255.000,171.500 C255.000,150.237 237.763,133.000 216.500,133.000 ZM210.500,281.000 L223.500,281.000 C224.328,281.000 225.000,281.672 225.000,282.500 C225.000,283.328 224.328,284.000 223.500,284.000 L222.633,284.000 C221.806,286.325 219.609,288.000 217.000,288.000 C214.391,288.000 212.194,286.325 211.367,284.000 L210.500,284.000 C209.672,284.000 209.000,283.328 209.000,282.500 C209.000,281.672 209.672,281.000 210.500,281.000 Z" class="cls-5"/>
  <rect x="211" y="232" width="12" height="49" class="cls-6"/>
  <rect x="48" y="216" width="26" height="25" rx="2" ry="2" class="cls-7"/>
  <path d="M85.000,217.000 L107.000,217.000 C108.105,217.000 109.000,217.895 109.000,219.000 L109.000,230.000 L83.000,230.000 L83.000,219.000 C83.000,217.895 83.895,217.000 85.000,217.000 Z" class="cls-8"/>
  <path d="M83.000,230.000 L109.000,230.000 L109.000,239.000 C109.000,240.105 108.105,241.000 107.000,241.000 L85.000,241.000 C83.895,241.000 83.000,240.105 83.000,239.000 L83.000,230.000 Z" class="cls-9"/>
  <path d="M120.000,217.000 L142.000,217.000 C143.105,217.000 144.000,217.895 144.000,219.000 L144.000,230.000 L118.000,230.000 L118.000,219.000 C118.000,217.895 118.895,217.000 120.000,217.000 Z" class="cls-8"/>
  <path d="M118.000,230.000 L144.000,230.000 L144.000,239.000 C144.000,240.105 143.105,241.000 142.000,241.000 L120.000,241.000 C118.895,241.000 118.000,240.105 118.000,239.000 L118.000,230.000 Z" class="cls-10"/>
  <path d="M143.000,247.000 L49.000,247.000 C48.448,247.000 48.000,246.552 48.000,246.000 C48.000,245.448 48.448,245.000 49.000,245.000 L143.000,245.000 C143.552,245.000 144.000,245.448 144.000,246.000 C144.000,246.552 143.552,247.000 143.000,247.000 ZM49.000,251.000 L128.000,251.000 C128.552,251.000 129.000,251.448 129.000,252.000 C129.000,252.552 128.552,253.000 128.000,253.000 L49.000,253.000 C48.448,253.000 48.000,252.552 48.000,252.000 C48.000,251.448 48.448,251.000 49.000,251.000 Z" class="cls-4"/>
  <path d="M66.000,107.000 L49.000,107.000 C48.448,107.000 48.000,106.552 48.000,106.000 C48.000,105.448 48.448,105.000 49.000,105.000 L66.000,105.000 L66.000,107.000 ZM49.000,111.000 L66.000,111.000 L66.000,113.000 L49.000,113.000 C48.448,113.000 48.000,112.552 48.000,112.000 C48.000,111.448 48.448,111.000 49.000,111.000 ZM49.000,117.000 L66.000,117.000 L66.000,119.000 L49.000,119.000 C48.448,119.000 48.000,118.552 48.000,118.000 C48.000,117.448 48.448,117.000 49.000,117.000 ZM49.000,132.000 L66.000,132.000 L66.000,134.000 L49.000,134.000 C48.448,134.000 48.000,133.552 48.000,133.000 C48.000,132.448 48.448,132.000 49.000,132.000 ZM49.000,138.000 L66.000,138.000 L66.000,140.000 L49.000,140.000 C48.448,140.000 48.000,139.552 48.000,139.000 C48.000,138.448 48.448,138.000 49.000,138.000 ZM49.000,144.000 L66.000,144.000 L66.000,146.000 L49.000,146.000 C48.448,146.000 48.000,145.552 48.000,145.000 C48.000,144.448 48.448,144.000 49.000,144.000 ZM49.000,158.000 L66.000,158.000 L66.000,160.000 L49.000,160.000 C48.448,160.000 48.000,159.552 48.000,159.000 C48.000,158.448 48.448,158.000 49.000,158.000 ZM49.000,164.000 L66.000,164.000 L66.000,166.000 L49.000,166.000 C48.448,166.000 48.000,165.552 48.000,165.000 C48.000,164.448 48.448,164.000 49.000,164.000 ZM49.000,170.000 L66.000,170.000 L66.000,172.000 L49.000,172.000 C48.448,172.000 48.000,171.552 48.000,171.000 C48.000,170.448 48.448,170.000 49.000,170.000 ZM49.000,184.000 L66.000,184.000 L66.000,186.000 L49.000,186.000 C48.448,186.000 48.000,185.552 48.000,185.000 C48.000,184.448 48.448,184.000 49.000,184.000 ZM49.000,190.000 L66.149,190.000 C66.240,190.683 66.376,191.350 66.556,192.000 L49.000,192.000 C48.448,192.000 48.000,191.552 48.000,191.000 C48.000,190.448 48.448,190.000 49.000,190.000 ZM49.000,196.000 L68.327,196.000 C68.776,196.710 69.283,197.377 69.842,198.000 L49.000,198.000 C48.448,198.000 48.000,197.552 48.000,197.000 C48.000,196.448 48.448,196.000 49.000,196.000 Z" class="cls-4"/>
  <path d="M120.000,140.000 L135.000,140.000 C136.105,140.000 137.000,140.895 137.000,142.000 C137.000,143.105 136.105,144.000 135.000,144.000 L120.000,144.000 C118.895,144.000 118.000,143.105 118.000,142.000 C118.000,140.895 118.895,140.000 120.000,140.000 Z" class="cls-11"/>
  <path d="M120.000,146.000 L135.000,146.000 C136.105,146.000 137.000,146.895 137.000,148.000 C137.000,149.105 136.105,150.000 135.000,150.000 L120.000,150.000 C118.895,150.000 118.000,149.105 118.000,148.000 C118.000,146.895 118.895,146.000 120.000,146.000 Z" class="cls-12"/>
  <path d="M173.500,120.000 C150.580,120.000 132.000,101.420 132.000,78.500 C132.000,55.580 150.580,37.000 173.500,37.000 C196.420,37.000 215.000,55.580 215.000,78.500 C215.000,101.420 196.420,120.000 173.500,120.000 ZM173.500,50.000 C157.760,50.000 145.000,62.760 145.000,78.500 C145.000,94.240 157.760,107.000 173.500,107.000 C189.240,107.000 202.000,94.240 202.000,78.500 C202.000,62.760 189.240,50.000 173.500,50.000 Z" class="cls-13"/>
  <path d="M210.809,60.315 L199.596,67.043 C195.184,57.009 185.163,50.000 173.500,50.000 C173.338,50.000 173.178,50.010 173.017,50.012 L173.000,50.000 L173.000,37.013 C173.167,37.011 173.332,37.000 173.500,37.000 C189.896,37.000 204.068,46.511 210.809,60.315 Z" class="cls-10"/>
  <path d="M202.845,107.845 L193.653,98.653 C198.810,93.495 202.000,86.370 202.000,78.500 C202.000,74.267 201.052,70.264 199.397,66.652 L210.776,60.251 C213.478,65.759 215.000,71.951 215.000,78.500 C215.000,89.960 210.355,100.335 202.845,107.845 Z" class="cls-9"/>
</svg>
