<!-- Generator: Adobe Illustrator 21.0.2, SVG Export Plug-In  -->
<svg version="1.1"
	 xmlns="http://www.w3.org/2000/svg" xmlns:xlink="http://www.w3.org/1999/xlink" xmlns:a="http://ns.adobe.com/AdobeSVGViewerExtensions/3.0/"
	 x="0px" y="0px" width="30px" height="24px" viewBox="0 0 30 24" style="enable-background:new 0 0 30 24;" xml:space="preserve">
<style type="text/css">
	.st0{opacity:0.5;fill:#B6CEF6;enable-background:new    ;}
	.st1{fill:#2B70E1;}
</style>
<defs>
</defs>
<path class="st0" d="M12,24C5.4,24,0,18.6,0,12S5.4,0,12,0s12,5.4,12,12S18.6,24,12,24z M12,2C6.5,2,2,6.5,2,12s4.5,10,10,10
	s10-4.5,10-10S17.5,2,12,2z"/>
<path class="st1" d="M29.6,3l-15,14c-0.3,0.3-0.6,0.4-0.9,0.4c0,0,0,0,0,0.1c-0.6,0.6-1.5,0.6-2.1,0l-6-6C4.9,11,4.9,10,5.5,9.4
	C6,8.8,7,8.8,7.6,9.4l5.2,5.2L27.5,0.9c0.6-0.6,1.5-0.6,2.1,0C30.2,1.5,30.2,2.5,29.6,3z"/>
</svg>
