<!-- Generator: Adobe Illustrator 21.0.2, SVG Export Plug-In  -->
<svg version="1.1"
	 xmlns="http://www.w3.org/2000/svg" xmlns:xlink="http://www.w3.org/1999/xlink" xmlns:a="http://ns.adobe.com/AdobeSVGViewerExtensions/3.0/"
	 x="0px" y="0px" width="237px" height="324px" viewBox="0 0 237 324" style="enable-background:new 0 0 237 324;"
	 xml:space="preserve">
<style type="text/css">
	.st0{fill:#64CAFF;}
	.st1{fill:#53C0FF;}
	.st2{fill:#BDCB92;}
	.st3{fill:#E3E9A6;}
	.st4{fill:#F3F9FC;}
	.st5{fill:#A3D8F4;}
	.st6{fill:#A9C9DD;}
	.st7{fill:#FFFFFF;}
	.st8{fill:#C8DAEA;}
</style>
<defs>
</defs>
<path class="st0" d="M17,0h203c3.9,0,7,3.1,7,7v222H10V7C10,3.1,13.1,0,17,0z"/>
<path class="st1" d="M119,193.8c0-0.1,0.1-0.3,0.2-0.4c1.5,2.2,2.5,13.3,1.3,15.2c-1.4,2.2-4.1,1.9-7.7-1.1c6.2,1.3,6.3,1.2,6.2-4.7
	C119.1,199.7,119,196.8,119,193.8z M120,164.3c1.5,5.6,2.2,11,2.6,17.4c-3-2.8-1.8-5.9-3-8.3c-7.7-0.8-3.2,5.5-5.1,9.5
	c-2.1-6.2-1.6-11.6-2.7-17c3.4,1.1,0,7.5,5.6,6.1C122,170.8,117.4,166.9,120,164.3z M133.4,199c0.4,1.8,0.6,3.6,0.8,5.3
	c-0.1,1.9-0.5,3.6-1.1,5.3c-0.7,1.8-2,2.6-3.8,2.7c-4.7,0.2-5.7-3-6.1-6.7c-0.7-6,1.1-10.4,4.4-10.8
	C130.7,194.5,132.7,196,133.4,199z M125,203.7c0.4,2.9-0.4,7.3,4,7c3.9-0.2,3.2-4.3,3.1-7.2c-0.1-2.9-0.1-7-3.9-6.8
	C124.9,196.9,125.3,200.9,125,203.7z M130.4,166.2c3.9,0.1,5,3.4,5.4,6.6c0.2,1.9,0.2,4-0.1,5.9c-0.5,2.7-1.4,5.2-4.9,5.2
	c-3.6,0-4.9-2.2-5.5-5.3c-0.2-1.3-0.2-2.6-0.3-3.6c0.1-1.1,0-1.7,0.1-2.4C125.7,169.6,126.2,166.1,130.4,166.2z M127.3,179
	c0.3,1.7,1.2,3.2,3.2,3.2c2,0.1,2.9-1.4,3.3-3.1c0.3-1.1,0.2-2.3,0.2-2.2c0.1-2.9,0-4.6-0.7-6.1c-0.6-1.4-1.3-2.8-3.1-2.8
	c-1.9,0-2.3,1.7-2.7,3.1C126.7,173.8,126.7,176.4,127.3,179z M137.9,193.8c0.3,2.9,1,5.8,0.8,8.7c-0.1,3.8,0.8,6,5.2,5.3
	c0.9-0.2,2-0.3,3.3,1.2c-3.3,1.2-6.2,0.5-9,0.5c-1.7,0-1.4-1.5-1.4-2.6C136.8,202.5,136.8,198.3,137.9,193.8z M144.3,177.1
	c1.2-0.1,2.8-0.5,3.2,1.5c-0.4,0.1-0.9,0.4-1.3,0.4c-8.7,0.3-8.7,0.3-8.2-8.2c0.2-2.7-0.2-5.6,1.9-8.1c0,3.1,0.3,6.3-0.1,9.4
	C139.4,175.8,140.4,177.5,144.3,177.1z M164.5,170.8c1.5-2.2,3.1-4.4,4.6-6.6c0.4,0.2,0.7,0.4,1.1,0.6c-2.1,4.6-6,8.5-6.4,13.9
	c0-5.2-2.6-9.7-3.9-15.1C163,165.4,162,169,164.5,170.8z M163.7,178.7c0,0.5,0,1,0,1.5C163.6,179.7,163.6,179.2,163.7,178.7z
	 M152.3,177.3c-0.1,3.6,1.2,5.5,5.2,4.9c1-0.2,2.3-0.5,3.3,1.5c-3.1,0.8-6.1,0.3-9.1,0.3c-1,0-1.2-0.8-1.4-1.7
	c-0.3-1.6,0.4-12.1,1.6-13.9C152,171.3,152.3,174.3,152.3,177.3z M149,210.4c-0.3-4.6-0.7-9.2-1.1-13.8c2.6,2.8,2.3,6.1,2.6,9.1
	c0.4,3.6,1.1,5.6,5.3,4.5c0.9-0.2,2.3-0.7,3.5,1.5c-2.9,0.3-5.5,0.6-8.2,0.8C149.8,212.6,149.1,211.9,149,210.4z M160.6,194
	c0.8,2.2,1.6,4.5,2.6,7.3c1.9-2.3,3.5-4.2,5.2-6.1c-1.5,5.4-6.2,9.4-6.2,15.6c0.5-5.8-1.3-11-2.9-16.3
	C159.7,194.2,160.1,194.1,160.6,194z M49,104.2c3.4,3.9,3.1,9.8,7.5,13.2c2-3.9,2.7-7.9,2.8-12c0-0.9-0.2-2.2,1.2-2.3
	c1.4-0.1,1.4,1.1,1.3,2.1c-0.9,8.5-3.3,16.5-6.9,24.2c-0.1,0.3-0.8,0.4-1.4,0.6c3.9-8.2-1.6-14.2-4.2-20.9
	C48.8,107.8,47.5,106.3,49,104.2z M56.8,149.4c-0.6-0.3-1.3-0.3-1.9-0.5c-3.7-1-6.4-3-4.8-7.1c1.8-4.8,5.5-2.5,8.5-1.5
	c-2.2,1.4-6.1-1.3-6.6,2.7c-0.4,3.5,3.3,3.5,5.8,4.1c2.3,0.6,4,2.1,3.9,4.5c0,2-1,3.8-3.2,4.7c-2.8,1.1-5.3,0.9-7.7-1.5
	c2.1-1.3,3.8,0.8,5.6-0.2c1.2-0.6,2.6-0.8,2.7-2.5C59.3,150.5,58,149.9,56.8,149.4z M12.4,158.8c-0.7,0.6-1.6,0-2.1-0.6
	c-0.1-0.1-0.2-0.2-0.2-0.3v-3.1c0.6,0.6,1.2,1.1,1.9,1.6C12.6,157,13.6,157.9,12.4,158.8z M10.8,117.6c0.4-2,1.5-3.4,3.3-4.1
	c2.8-1.1,5.9-1.7,7.4,1.5c1.6,3.4-1.5,4.5-3.9,5.7c-2.1,1-6.6,0.5-3.7,5.1c1,1.7,2.6,1.9,4.3,1.5c2.1-0.5,4.1-0.9,6.2-1.3
	c-3.1,2.5-6.5,5.8-10.4,2.8C10.5,126.2,10,121.9,10.8,117.6z M28.9,118.3c0.3,2.1,0.6,4.3,0.9,6.4c0.1,0.8,0.2,1.7-0.9,2
	c-1,0.3-1.7-0.4-1.8-1.3c-0.4-4.6-1.2-9.3-0.9-13.9c0.1-2,3.6-1,5.5-1.9c1.7-0.8,3.9,0,4.2,2.8C30,110.6,28.1,112.2,28.9,118.3z
	 M38.5,156c-2.3,0.2-3.4-1.7-3.5-4c-0.1-3.6,1.8-5.7,4.8-7.5c1.1-0.6,4.2,0.3,2.8-2.7c-1-2.1-2.8-1.9-4.6-1
	c-0.5,0.3-1.2,0.5-1.8-0.1c3.6-3.7,7.1-3.4,9,1.1c1.8,4.1,1.7,8.7,0.6,12.7C45.2,156.8,41,155.8,38.5,156z M41.5,146.2
	c-2.6,0.5-4.2,2.6-4.4,5.2c-0.1,1.5,0.9,2.7,2.4,2.5c2.4-0.3,4.4-1.4,4.3-4.5C43.3,148.2,44.2,145.7,41.5,146.2z M42,121
	c0.2,0.8,0.3,1.7-0.8,2c-1,0.3-1.7-0.4-1.8-1.2c-0.9-4.4-1.6-8.7-2.3-13.1c-0.1-0.5-0.3-1.8,0.6-1.4c3,1.3,6.5-4.4,9.7,1.1
	c-6.7-1.1-8.4,0.7-6.8,6.8C41,117.2,41.5,119.1,42,121z M18.2,162.5c-2.2-6-2.1-11-2.8-15.8c-0.5-3.1,2.8-1.8,4-2
	c2.3-0.4,4.7,0.5,7-1c1-0.7,2.3,0,3.2,0.7c3.1,2.2,4.5,11.5,2.2,15.7c-1.6-3.4-1.2-6.9-2.1-10.1c-0.5-1.8-0.8-4.6-3.5-4
	c-2.5,0.5-1.3,3-1.2,4.7c0.1,3.1,1.7,6.1,0.8,9.3c-2.3,0.2-1.8-1.6-2-2.7c-0.5-2.1-0.6-4.3-1.2-6.4c-0.4-1.7-0.6-4.2-3-3.9
	c-2.8,0.3-1.6,2.9-1.5,4.5C18.2,154.5,19.8,157.7,18.2,162.5z M26.5,224.6c-0.9-2.6-2.3-5-2.4-8.5c2.5,2.4,3.1,5.2,3.9,7.7
	c1.1,3.5,2.6,5.1,6.3,3.1c0.7-0.4,1.7-1.3,2.6-0.1c-1.1,0.9-2.1,1.7-3,2.2h-5.1C27.9,228.1,27.2,226.7,26.5,224.6z M37.4,218.8
	c-0.1-3.1,1.1-5.3,4.3-5.5c3.2-0.3,6,4.4,6.3,10.4c0.3,2.7-0.4,5.1-3.9,5.4h-1.1C39.8,228.6,37.7,224.8,37.4,218.8z M46.5,223.2
	c-0.8-2.8-0.5-6.9-4.7-8c-2.5-0.6-2.9,2.1-2.6,3.8c0.6,3.2,0.1,7.5,4.5,8.6C46,228.1,46.3,225.6,46.5,223.2z M53.7,223.7
	c-0.5,0-1.3-0.5-1.5-1c-2.1-3.9-4.3-7.7-4.9-12.3c1.6,3,3.3,5.9,5.4,9.8c0.5-4.4,0.9-7.7,1.3-11.1c0.3,0,0.6,0,0.9,0.1
	c0,4.2,0,8.4,0,12.6C54.9,222.7,54.8,223.7,53.7,223.7z M67.3,223.4c-5.8,3.1-6.4,2.9-7.8-3.1c-0.2-1-0.4-2-0.6-2.9
	c-1.5-7.3-1.5-7.3,6.1-7.8c-0.7,2.7-5.9,0.3-5.2,4.7c0.5,3.4,3.2,1.2,5,2.2c-0.8,1.7-4.5,0.8-3.5,4.4
	C62.4,224.7,65.4,222.4,67.3,223.4z M154,38.4c0.6-2.1,1.4-4.6,4.2-3.9c2.4,0.6,3,2.9,2.8,5.2c-0.2,1.8-0.5,3.6-0.9,5.4
	c-0.5,2.2-1.4,4.5-4.2,3.8c-2.4-0.6-3.1-2.7-2.8-5.1C152.8,41.8,153.5,40.1,154,38.4z M155,46.7c0.6,0.7,1.4,1.1,2.2,0.6
	c2.5-1.8,1.9-4.7,2.7-7.3c-0.5-1.3-0.2-3.4-1.9-3.7c-2.2-0.4-2.6,1.8-2.9,3.3C154.7,41.8,153.1,44.3,155,46.7z M148.5,40.5
	c-3.3-0.4-1.6,3.6-3.4,5.7c-0.6-3.7,0.8-6.7,1.2-9.8c1.3,0.6,0.6,2.9,2.9,2.8c3.2-0.1,0.9-3.7,3.6-4.5c-0.7,4.2-1.3,8.1-2,12.6
	C148.4,45,152.3,41,148.5,40.5z M135.7,25.3c3.4,0.5,3.2,3.7,3.3,6.4c-0.2,2.9,0,6.1-2.9,8c-1,0.7-2.3,0.3-3.2-0.5
	c-2.6-2.4-2-5.5-1.4-8.4C131.9,28.4,131.9,24.8,135.7,25.3z M134.8,38.2c3.2-0.1,2.7-3.3,2.8-5.4c0.2-2.2,0.2-5.9-2.2-5.8
	c-3.4,0.1-2,4.2-2.8,6.6C133.2,35.2,131.9,38.3,134.8,38.2z M118.2,17c-0.4-1.9-0.6-3.9-0.9-6.3c0.4-1.6,0.2-4.2,3.1-4.4
	c2.5-0.2,3.3,1.7,3.7,3.8c0.5,2.3,1.1,4.5,0.6,6.8c-0.4,1.8-1.6,3-3.5,2.9C119.6,19.7,118.5,18.6,118.2,17z M123.6,14.6
	c-0.3-2.4,0.3-6-3-6.6c-2.3-0.4-1.4,2.4-1.8,3.8c0.5,2.3-0.7,5.5,2.5,6.3C123.5,18.7,123.8,15.9,123.6,14.6z M126.5,32.8
	c-4-0.4-0.9,4.2-3.3,5.7c-0.5-4.2,0-8.1,1-12.2c1.7,1.3-1.1,4.4,2,4.7c3.6,0.4,1.9-3.2,3.6-5.4c0.1,4.8,0.4,9.1-0.8,13.4
	C126.6,37.2,130.1,33.2,126.5,32.8z M111.2,20.8c-0.7-3.6-1.4-6.8-1-10.3c1.5,0.7-0.3,4,2.8,3.1c2.8-0.8,1.3-3.1,2.3-4.9
	c0.6,3.7,1.1,7.5,1.7,11.6c-3-1.1-0.3-5.7-3.8-5.1C110.3,15.6,113.1,19,111.2,20.8z M197.9,0.5c-0.1-0.2-0.1-0.3-0.2-0.5h5.1
	C200.4,0.8,198.4,1.5,197.9,0.5z M196.2,46.8c-2.1,0.3-0.7,2.3-1.9,3.4c0-2.1,0-3.9,0-6.3c2.8,5,3-0.3,4.5-0.7c0,2.2,0,4.3,0,6.6
	C197.4,49.3,198.6,46.5,196.2,46.8z M223.8,202.6c-4.6,6.7-10.4,10.9-16.3,14.9c-5,3.3-8.6,7.2-11,11.5h-16.7
	c-0.1-7.4,1-14.6,3.5-21.6c4.3-11.7,4.5-23.8,2.5-35.9c-1.9-11.5-8.6-19.2-19.4-23.4c-5.6-2.2-11.5-3.2-17.5-3.6
	c-9.5-0.7-19-1.3-28.2,2c-18.3,6.6-32.3,28.8-30.3,48.3c1.8,18.3,10.7,27.2,29,29.6c6.9,0.9,13.7,0.2,20.4-0.6
	c11.6-1.4,22.4-0.8,31.4,5.3H74.7c0.3-2,0.2-4.2-0.2-6.4c-0.9-4.6-1.9-9.1-3-13.6c-1.9-8.1-2.5-16,3-24.5
	c-8.6,3.4-16.1,4.6-23.6,5.8c-12.9,2-23.1,7.8-29.2,19.9c-3.4,6.7-4.3,13.3-2.8,18.8H10v-40.5c3.9-0.3,8-0.3,12.2-0.1
	c14.3,1,27.8-2.4,38.9-12.4c11.1-10,19-21.9,22.5-36.4c4.7-19.4-0.3-36.1-16.3-48.5c-14-11-30.3-15-47.9-12.4
	c-3.3,0.5-6.5,1.2-9.4,2.1V66.2c1.2,0,2.4,0,3.6,0c-1.4-0.9-2.6-1.9-3.6-3V7c0-3.9,3.1-7,7-7h13.2c0,0,0.1,0,0.1,0
	c3.3,0.2,6.6,0.2,9.9,0H71C78.2,1.8,84.7,5.7,90,13.5C89.5,8.9,89.3,4.4,89.6,0h19c-5.3,6.2-7.5,13.8-6.4,22.9
	c0.8,6.8,2.7,13.4,5.9,19.5c7.8,15,21.8,22.4,37.9,19.8c9.8-1.6,18.1-6.1,22-15.9c3.6-9.2-0.4-16.9-6.2-23.8
	c-3.5-4.2-7.3-8.2-11-12.3c-3-3.3-5.9-6.6-8.6-10.1H155c0.3,7.5,4.3,13.7,11.8,17.3c11.7,5.6,23.6,5.4,35.1-0.3
	c7.3-3.6,10.3-9.2,9.5-17h8.6c3.9,0,7,3.1,7,7v51.3c-1.5-3.8-1.6-7.9-1.8-12.1c-0.3-7.6-4-12.8-10.5-16.4
	c-6.4-3.5-13.2-4.5-20.3-3.6c-10.3,1.3-16.9,7.1-17.6,14.9c-1.1,12.7,8,24.1,20.7,24.7c9.6,0.5,19.3,0.3,29.4,0.2v19.8
	c-9.5,6.1-16.9,16.2-20,31.5c-2.9,14.3-1.9,28.5,0.6,42.6c2.8,15.7,3.5,31-3.6,45.9c-0.3,0.7-0.5,1.5-1.2,3.5
	c2.7-3.1,4.5-5.1,6.2-7.1c5.2-6,11.2-10,18-12.2v23.9C225.5,210.6,224.3,206.8,223.8,202.6z M81.1,20.9C74,13.7,65.2,9.6,55.2,8
	c-14.4-2.3-28.9,2.2-43.5-0.7c8.8,8.3,9.6,18.8,9.3,29.6c-0.1,3.3,0,6.7,0,10c0.1,10.7,5.2,18.3,14.7,23c8.2,4.1,16.9,5.2,25.8,4.1
	c12.6-1.6,23.1-6.8,27.6-19.7C93.5,41.6,90.5,30.3,81.1,20.9z M193.8,109.2c-1.8-11.1-7.5-20.1-16.9-26.6
	c-11.1-7.8-23.6-7.1-36.1-6.2c-16.6,1.2-33,4.2-50,4.3c12.4,6,17.4,17,20.8,29.1c0.5,1.8,1,3.5,1.5,5.3c2.6,8.2,7.1,14.9,14.7,19.3
	c15.8,9.2,42.5,7.6,56.7-3.8C191.4,125.1,195.2,118,193.8,109.2z M174.9,101.7c-1,4.2,3.1,2.8,5,4.7c-2.9,0.5-6.5-0.5-6.6,4.1
	c0,4.4,4.4,1.9,5.8,4.7c-1.9-0.2-3.6-0.3-5.3-0.5c-2.2-0.3-3.2-1.3-2.6-3.7c0.6-2.6,1.1-5.2,1.6-7.8c1.4-6.8,2.8-7.4,9.3-3.8
	C180.2,101.9,176.1,96.7,174.9,101.7z M169.7,111.3c-3.2,3.2-6,3.8-8.9,1.7c-3.3-2.4-4.1-10.3-1.7-14.3c1.8-2.9,4.1-3.2,8.5-0.8
	c-2.5,0-5.3-1.4-6.8,1.5c-1.8,3.4-1.7,7-0.1,10.5C162.5,113.8,165.9,111.6,169.7,111.3z M156.6,116.1c-1.1-2.5-1.6-5-5.3-5.4
	c-4.5-0.4-2.9,4.1-5.5,5.4c-1.4-3.1,0.5-5.5,1.4-7.9c1.2-3.2,2-9.1,4-8.9c3.5,0.4,2.9,5.8,4.5,8.9c1.2,2.2,1.5,4.8,2.2,7.3
	C157.5,115.7,157.1,115.9,156.6,116.1z M151.6,102.5c-1.4,2.1-1.9,4.1-2.4,6.2c1.5,0.7,3.8,1,4.1,0.1
	C154.3,106.6,152.2,104.8,151.6,102.5z M136.9,102.1c0.3,3.5,3.6,1.6,5.2,3.6c-2.3,0.7-5.5-0.3-5.3,4.1c0.2,4.9,4.3,2.3,6.3,3.9
	c-1.8,1.1-3.6,0.5-5.3,0.7c-2.1,0.3-3.1-0.6-2.9-2.8c0.2-2.5,0.1-5,0.1-7.5c0.1-7.8,0.1-7.8,8.4-6.3
	C142.3,100.8,136.4,96.6,136.9,102.1z M128.8,106.5c-4.3,0.7-6.4,2-5.5,7.1c-2.2-5.5-2.6-10.7-2.2-15.9c0.2-2.9,3.1-2.4,5.1-2.5
	c2.9-0.1,4.5,1.6,5,4.5C131.7,102.5,131.7,106,128.8,106.5z M125.2,96.6c-1.7,0.1-3.3,0.8-2.6,3.6c0.9,1.7-1.1,5.6,3.3,5.5
	c2.4-0.1,4.1-1.8,3.9-4.3C129.6,98.7,128.3,96.5,125.2,96.6z M71.2,48.8c0.1,0.9,0,2.2-1.4,2.1c-1.2-0.1-1.8-1-1.4-2.1
	c2.4-6.8-1.1-12.6-3.1-18.6c-0.3-1-1.1-2.1,0-4c2.9,3.4,3.4,7.5,5.5,11.1c4-1.9,4.1-7.7,8.8-9.2c0.5,1.9-0.7,2.7-1.4,3.8
	C75,37.1,70.4,41.8,71.2,48.8z M53.2,53.1c-3.5-0.3-6.1-1.8-7-5.3c-0.6-2.4-0.5-4.9-0.8-7.4c0.3-2.3,0.2-4.7,0.8-6.9
	c0.8-3,2.4-5.4,6.2-5.5c3.7-0.1,6.6,1.1,8,4.7c2,5.3,2,10.8,0.2,16.1C59.5,52.3,56.7,53.4,53.2,53.1z M57,32.9
	c-2.5-3.7-5.7-3.5-7.4,0.6c-1.2,2.8-1.6,5.7-1.5,8.8c0.3,5.8,2.6,9.4,6,8.7c5-0.9,4.8-5.2,5-8.3C59.1,38.7,58.8,35.6,57,32.9z
	 M38.3,50.1c-3.4,0.6-6.6,0.5-8.5-3.3c1.7-1.1,2.4,0,3.2,0.3c4.1,1.8,6.1,0.7,6-3.7c0-5-0.5-9.9-0.7-14.9c-0.1-1.1-0.4-2.7,1.1-2.9
	c2.1-0.2,1.5,1.7,1.6,2.9c0.3,5.1,0.6,10.2,0.8,15.3C41.8,46.6,41.8,49.4,38.3,50.1z M227,144.3L227,144.3
	C227,144.3,227,144.3,227,144.3C227,144.3,227,144.3,227,144.3z M223.6,131c0,0.2-0.4,0.5-1.2,1.5c-2.2-5.2-2.8-10.3-4.1-15.2
	c-0.1-0.5,0.1-1.7,0.4-1.7c2.8-0.4,5.6-1.1,8.4-1.4v10.1c-0.5-1.6-1-3.3-1.6-4.9c-0.4-1.2-1.3-2.7-2.9-2.2c-1.9,0.5-1.6,2.2-1.2,3.7
	C222.1,124.3,222.9,127.7,223.6,131z M170.8,2.5c0.8-0.5,1.8-0.8,3,0c-0.2,0.4-0.2,0.7-0.3,0.7c-7.3,3.3-7.7,3.5-10.2-3.2h1.7
	C166.1,3,167.5,4.4,170.8,2.5z M180.5,4.5c-2.2,0-4.1-1.7-5.2-4.5h1.8c0.9,2,2.2,3.2,3.6,3.1c2-0.2,2.3-1.5,2.4-3.1h1.8
	C184.9,2.7,183.6,4.4,180.5,4.5z"/>
<g>
	<path class="st2" d="M63,229v47H26v-47v-47h37V229z"/>
	<path class="st3" d="M68,229v52H21v-52v-52h47V229z M26,228.5V267c4.7,0.7,8.3,4.3,9,9h20.1c0.6-4.3,3.8-7.7,7.9-8.7v-38.8v-38.8
		c-3.8-0.9-6.8-3.9-7.7-7.7H34.8c-1,4.2-4.5,7.4-8.8,8V228.5z M49,200c0,2.2-1.8,4-4,4s-4-1.8-4-4s1.8-4,4-4S49,197.8,49,200z
		 M60,229c0,7.2-7.2,13-16,13s-16-5.8-16-13s7.2-13,16-13S60,221.8,60,229z M47.4,222c-0.8,0-1.4,0.2-2,0.5
		c-0.6,0.3-1.1,0.9-1.6,1.6c-0.5,0.7-1.1,1.4-1.7,3h-3.9c0.1-1.4,0.5-2.2,1-3.6l-3.1-1.2c-0.7,1.6-1.1,2.8-1.2,4.8h-2v2.9h2
		c0.2,1.8,0.7,2.6,1.5,3.5c0.8,1,1.9,1.5,3.1,1.5c1.2,0,2.2-0.4,3-1.1c0.8-0.7,1.5-1.9,2.2-3.6l0.3-0.3h4.1
		c-0.1,0.8-0.2,1.2-0.5,2.3c-0.3,1.1-0.6,2-1,2.7h3.5c0.7-1.6,1.1-2.9,1.1-5H55v-2.9h-2.7c-0.2-1.8-0.7-2.6-1.5-3.6
		C49.9,222.5,48.8,222,47.4,222z M49.2,227.1h-3.3c0.3-0.6,0.4-0.7,0.6-0.9c0.2-0.2,0.7-0.4,1.1-0.4C48.5,225.8,49,225.9,49.2,227.1
		z M39.6,231.3c-0.7,0-1.4-0.4-1.4-1.3h3.1c-0.3,0.6-0.4,0.7-0.7,0.9C40.4,231.1,40.2,231.2,39.6,231.3z M49,258c0,2.2-1.8,4-4,4
		s-4-1.8-4-4s1.8-4,4-4S49,255.8,49,258z"/>
</g>
<g>
	<path class="st2" d="M75,220v47H38v-47v-47h37V220z"/>
	<path class="st3" d="M80,220v52H33v-52v-52h47V220z M38,219.5V258c4.7,0.7,8.3,4.3,9,9h20.1c0.6-4.3,3.8-7.7,7.9-8.7v-38.8v-38.8
		c-3.8-0.9-6.8-3.9-7.7-7.7H46.8c-1,4.2-4.5,7.4-8.8,8V219.5z M61,191c0,2.2-1.8,4-4,4s-4-1.8-4-4s1.8-4,4-4S61,188.8,61,191z
		 M72,220c0,7.2-7.2,13-16,13s-16-5.8-16-13s7.2-13,16-13S72,212.8,72,220z M59.4,213c-0.8,0-1.4,0.2-2,0.5s-1.1,0.9-1.6,1.6
		c-0.5,0.7-1.1,1.4-1.7,3h-3.9c0.1-1.4,0.5-2.2,1-3.6l-3.1-1.2c-0.7,1.6-1.1,2.8-1.2,4.8h-2v2.9h2c0.2,1.8,0.7,2.6,1.5,3.5
		c0.8,1,1.9,1.5,3.1,1.5c1.2,0,2.2-0.4,3-1.1c0.8-0.7,1.5-1.9,2.2-3.6l0.3-0.3h4.1c-0.1,0.8-0.2,1.2-0.5,2.3c-0.3,1.1-0.6,2-1,2.7
		h3.5c0.7-1.6,1.1-2.9,1.1-5H67v-2.9h-2.7c-0.2-1.8-0.7-2.6-1.5-3.6C61.9,213.5,60.8,213,59.4,213z M61.2,218.1h-3.3
		c0.3-0.6,0.4-0.7,0.6-0.9c0.2-0.2,0.7-0.4,1.1-0.4C60.5,216.8,61,216.9,61.2,218.1z M51.6,222.3c-0.7,0-1.4-0.4-1.4-1.3h3.1
		c-0.3,0.6-0.4,0.7-0.7,0.9C52.4,222.1,52.2,222.2,51.6,222.3z M61,249c0,2.2-1.8,4-4,4s-4-1.8-4-4c0-2.2,1.8-4,4-4S61,246.8,61,249
		z"/>
</g>
<g>
	<path class="st2" d="M83,213v47H46v-47v-47h37V213z"/>
	<path class="st3" d="M88,213v52H41v-52v-52h47V213z M46,212.5V251c4.7,0.7,8.3,4.3,9,9h20.1c0.6-4.3,3.8-7.7,7.9-8.7v-38.8v-38.8
		c-3.8-0.9-6.8-3.9-7.7-7.7H54.8c-1,4.2-4.5,7.4-8.8,8V212.5z M69,184c0,2.2-1.8,4-4,4s-4-1.8-4-4s1.8-4,4-4S69,181.8,69,184z
		 M80,213c0,7.2-7.2,13-16,13s-16-5.8-16-13s7.2-13,16-13S80,205.8,80,213z M67.4,206c-0.8,0-1.4,0.2-2,0.5s-1.1,0.9-1.6,1.6
		c-0.5,0.7-1.1,1.4-1.7,3h-3.9c0.1-1.4,0.5-2.2,1-3.6l-3.1-1.2c-0.7,1.6-1.1,2.8-1.2,4.8h-2v2.9h2c0.2,1.8,0.7,2.6,1.5,3.5
		c0.8,1,1.9,1.5,3.1,1.5c1.2,0,2.2-0.4,3-1.1c0.8-0.7,1.5-1.9,2.2-3.6l0.3-0.3h4.1c-0.1,0.8-0.2,1.2-0.5,2.3c-0.3,1.1-0.6,2-1,2.7
		h3.5c0.7-1.6,1.1-2.9,1.1-5H75v-2.9h-2.7c-0.2-1.8-0.7-2.6-1.5-3.6C69.9,206.5,68.8,206,67.4,206z M69.2,211.1h-3.3
		c0.3-0.6,0.4-0.7,0.6-0.9c0.2-0.2,0.7-0.4,1.1-0.4C68.5,209.8,69,209.9,69.2,211.1z M59.6,215.3c-0.7,0-1.4-0.4-1.4-1.3h3.1
		c-0.3,0.6-0.4,0.7-0.7,0.9C60.4,215.1,60.2,215.2,59.6,215.3z M69,242c0,2.2-1.8,4-4,4s-4-1.8-4-4s1.8-4,4-4S69,239.8,69,242z"/>
</g>
<g>
	<path class="st2" d="M79,239v47H42v-47v-47h37V239z"/>
	<path class="st3" d="M84,239v52H37v-52v-52h47V239z M42,238.5V277c4.7,0.7,8.3,4.3,9,9h20.1c0.6-4.3,3.8-7.7,7.9-8.7v-38.8v-38.8
		c-3.8-0.9-6.8-3.9-7.7-7.7H50.8c-1,4.2-4.5,7.4-8.8,8V238.5z M65,210c0,2.2-1.8,4-4,4s-4-1.8-4-4s1.8-4,4-4S65,207.8,65,210z
		 M76,239c0,7.2-7.2,13-16,13s-16-5.8-16-13s7.2-13,16-13S76,231.8,76,239z M63.4,232c-0.8,0-1.4,0.2-2,0.5s-1.1,0.9-1.6,1.6
		c-0.5,0.7-1.1,1.4-1.7,3h-3.9c0.1-1.4,0.5-2.2,1-3.6l-3.1-1.2c-0.7,1.6-1.1,2.8-1.2,4.8h-2v2.9h2c0.2,1.8,0.7,2.6,1.5,3.5
		c0.8,1,1.9,1.5,3.1,1.5c1.2,0,2.2-0.4,3-1.1c0.8-0.7,1.5-1.9,2.2-3.6l0.3-0.3h4.1c-0.1,0.8-0.2,1.2-0.5,2.3c-0.3,1.1-0.6,2-1,2.7
		h3.5c0.7-1.6,1.1-2.9,1.1-5H71v-2.9h-2.7c-0.2-1.8-0.7-2.6-1.5-3.6C65.9,232.5,64.8,232,63.4,232z M65.2,237.1h-3.3
		c0.3-0.6,0.4-0.7,0.6-0.9c0.2-0.2,0.7-0.4,1.1-0.4C64.5,235.8,65,235.9,65.2,237.1z M55.6,241.3c-0.7,0-1.4-0.4-1.4-1.3h3.1
		c-0.3,0.6-0.4,0.7-0.7,0.9C56.4,241.1,56.2,241.2,55.6,241.3z M65,268c0,2.2-1.8,4-4,4s-4-1.8-4-4s1.8-4,4-4S65,265.8,65,268z"/>
</g>
<g>
	<path class="st2" d="M103,218v47H66v-47v-47h37V218z"/>
	<path class="st3" d="M108,218v52H61v-52v-52h47V218z M66,217.5V256c4.7,0.7,8.3,4.3,9,9h20.1c0.6-4.3,3.8-7.7,7.9-8.7v-38.8v-38.8
		c-3.8-0.9-6.8-3.9-7.7-7.7H74.8c-1,4.2-4.5,7.4-8.8,8V217.5z M89,189c0,2.2-1.8,4-4,4s-4-1.8-4-4s1.8-4,4-4S89,186.8,89,189z
		 M100,218c0,7.2-7.2,13-16,13s-16-5.8-16-13s7.2-13,16-13S100,210.8,100,218z M87.4,211c-0.8,0-1.4,0.2-2,0.5s-1.1,0.9-1.6,1.6
		c-0.5,0.7-1.1,1.4-1.7,3h-3.9c0.1-1.4,0.5-2.2,1-3.6l-3.1-1.2c-0.7,1.6-1.1,2.8-1.2,4.8h-2v2.9h2c0.2,1.8,0.7,2.6,1.5,3.5
		c0.8,1,1.9,1.5,3.1,1.5c1.2,0,2.2-0.4,3-1.1c0.8-0.7,1.5-1.9,2.2-3.6l0.3-0.3h4.1c-0.1,0.8-0.2,1.2-0.5,2.3c-0.3,1.1-0.6,2-1,2.7
		h3.5c0.7-1.6,1.1-2.9,1.1-5H95v-2.9h-2.7c-0.2-1.8-0.7-2.6-1.5-3.6C89.9,211.5,88.8,211,87.4,211z M89.2,216.1h-3.3
		c0.3-0.6,0.4-0.7,0.6-0.9c0.2-0.2,0.7-0.4,1.1-0.4C88.5,214.8,89,214.9,89.2,216.1z M79.6,220.3c-0.7,0-1.4-0.4-1.4-1.3h3.1
		c-0.3,0.6-0.4,0.7-0.7,0.9C80.4,220.1,80.2,220.2,79.6,220.3z M89,247c0,2.2-1.8,4-4,4s-4-1.8-4-4s1.8-4,4-4S89,244.8,89,247z"/>
</g>
<g>
	<path class="st2" d="M114,243v47H77v-47v-47h37V243z"/>
	<path class="st3" d="M119,243v52H72v-52v-52h47V243z M77,242.5V281c4.7,0.7,8.3,4.3,9,9h20.1c0.6-4.3,3.8-7.7,7.9-8.7v-38.8v-38.8
		c-3.8-0.9-6.8-3.9-7.7-7.7H85.8c-1,4.2-4.5,7.4-8.8,8V242.5z M100,214c0,2.2-1.8,4-4,4s-4-1.8-4-4s1.8-4,4-4S100,211.8,100,214z
		 M111,243c0,7.2-7.2,13-16,13s-16-5.8-16-13s7.2-13,16-13S111,235.8,111,243z M98.4,236c-0.8,0-1.4,0.2-2,0.5s-1.1,0.9-1.6,1.6
		c-0.5,0.7-1.1,1.4-1.7,3h-3.9c0.1-1.4,0.5-2.2,1-3.6l-3.1-1.2c-0.7,1.6-1.1,2.8-1.2,4.8h-2v2.9h2c0.2,1.8,0.7,2.6,1.5,3.5
		c0.8,1,1.9,1.5,3.1,1.5c1.2,0,2.2-0.4,3-1.1c0.8-0.7,1.5-1.9,2.2-3.6l0.3-0.3h4.1c-0.1,0.8-0.2,1.2-0.5,2.3c-0.3,1.1-0.6,2-1,2.7
		h3.5c0.7-1.6,1.1-2.9,1.1-5h2.6v-2.9h-2.7c-0.2-1.8-0.7-2.6-1.5-3.6C100.9,236.5,99.8,236,98.4,236z M100.2,241.1h-3.3
		c0.3-0.6,0.4-0.7,0.6-0.9c0.2-0.2,0.7-0.4,1.1-0.4C99.5,239.8,100,239.9,100.2,241.1z M90.6,245.3c-0.7,0-1.4-0.4-1.4-1.3h3.1
		c-0.3,0.6-0.4,0.7-0.7,0.9C91.4,245.1,91.2,245.2,90.6,245.3z M100,272c0,2.2-1.8,4-4,4s-4-1.8-4-4s1.8-4,4-4S100,269.8,100,272z"
		/>
</g>
<g>
	<path class="st2" d="M130,210v47H93v-47v-47h37V210z"/>
	<path class="st3" d="M135,210v52H88v-52v-52h47V210z M93,209.5V248c4.7,0.7,8.3,4.3,9,9h20.1c0.6-4.3,3.8-7.7,7.9-8.7v-38.8v-38.8
		c-3.8-0.9-6.8-3.9-7.7-7.7h-20.5c-1,4.2-4.5,7.4-8.8,8V209.5z M116,181c0,2.2-1.8,4-4,4s-4-1.8-4-4s1.8-4,4-4S116,178.8,116,181z
		 M127,210c0,7.2-7.2,13-16,13s-16-5.8-16-13s7.2-13,16-13S127,202.8,127,210z M114.4,203c-0.8,0-1.4,0.2-2,0.5s-1.1,0.9-1.6,1.6
		c-0.5,0.7-1.1,1.4-1.7,3h-3.9c0.1-1.4,0.5-2.2,1-3.6l-3.1-1.2c-0.7,1.6-1.1,2.8-1.2,4.8h-2v2.9h2c0.2,1.8,0.7,2.6,1.5,3.5
		c0.8,1,1.9,1.5,3.1,1.5c1.2,0,2.2-0.4,3-1.1c0.8-0.7,1.5-1.9,2.2-3.6l0.3-0.3h4.1c-0.1,0.8-0.2,1.2-0.5,2.3c-0.3,1.1-0.6,2-1,2.7
		h3.5c0.7-1.6,1.1-2.9,1.1-5h2.6v-2.9h-2.7c-0.2-1.8-0.7-2.6-1.5-3.6C116.9,203.5,115.8,203,114.4,203z M116.2,208.1h-3.3
		c0.3-0.6,0.4-0.7,0.6-0.9c0.2-0.2,0.7-0.4,1.1-0.4C115.5,206.8,116,206.9,116.2,208.1z M106.6,212.3c-0.7,0-1.4-0.4-1.4-1.3h3.1
		c-0.3,0.6-0.4,0.7-0.7,0.9C107.4,212.1,107.2,212.2,106.6,212.3z M116,239c0,2.2-1.8,4-4,4s-4-1.8-4-4s1.8-4,4-4S116,236.8,116,239
		z"/>
</g>
<g>
	<path class="st2" d="M140,231v47h-37v-47v-47h37V231z"/>
	<path class="st3" d="M145,231v52H98v-52v-52h47V231z M103,230.5V269c4.7,0.7,8.3,4.3,9,9h20.1c0.6-4.3,3.8-7.7,7.9-8.7v-38.8v-38.8
		c-3.8-0.9-6.8-3.9-7.7-7.7h-20.5c-1,4.2-4.5,7.4-8.8,8V230.5z M126,202c0,2.2-1.8,4-4,4s-4-1.8-4-4s1.8-4,4-4S126,199.8,126,202z
		 M137,231c0,7.2-7.2,13-16,13s-16-5.8-16-13s7.2-13,16-13S137,223.8,137,231z M124.4,224c-0.8,0-1.4,0.2-2,0.5s-1.1,0.9-1.6,1.6
		c-0.5,0.7-1.1,1.4-1.7,3h-3.9c0.1-1.4,0.5-2.2,1-3.6l-3.1-1.2c-0.7,1.6-1.1,2.8-1.2,4.8h-2v2.9h2c0.2,1.8,0.7,2.6,1.5,3.5
		c0.8,1,1.9,1.5,3.1,1.5c1.2,0,2.2-0.4,3-1.1c0.8-0.7,1.5-1.9,2.2-3.6l0.3-0.3h4.1c-0.1,0.8-0.2,1.2-0.5,2.3c-0.3,1.1-0.6,2-1,2.7
		h3.5c0.7-1.6,1.1-2.9,1.1-5h2.6v-2.9h-2.7c-0.2-1.8-0.7-2.6-1.5-3.6C126.9,224.5,125.8,224,124.4,224z M126.2,229.1h-3.3
		c0.3-0.6,0.4-0.7,0.6-0.9c0.2-0.2,0.7-0.4,1.1-0.4C125.5,227.8,126,227.9,126.2,229.1z M116.6,233.3c-0.7,0-1.4-0.4-1.4-1.3h3.1
		c-0.3,0.6-0.4,0.7-0.7,0.9C117.4,233.1,117.2,233.2,116.6,233.3z M126,260c0,2.2-1.8,4-4,4s-4-1.8-4-4s1.8-4,4-4S126,257.8,126,260
		z"/>
</g>
<g>
	<path class="st2" d="M151,221v47h-37v-47v-47h37V221z"/>
	<path class="st3" d="M156,221v52h-47v-52v-52h47V221z M114,220.5V259c4.7,0.7,8.3,4.3,9,9h20.1c0.6-4.3,3.8-7.7,7.9-8.7v-38.8
		v-38.8c-3.8-0.9-6.8-3.9-7.7-7.7h-20.5c-1,4.2-4.5,7.4-8.8,8V220.5z M137,192c0,2.2-1.8,4-4,4s-4-1.8-4-4s1.8-4,4-4
		S137,189.8,137,192z M148,221c0,7.2-7.2,13-16,13s-16-5.8-16-13s7.2-13,16-13S148,213.8,148,221z M135.4,214c-0.8,0-1.4,0.2-2,0.5
		s-1.1,0.9-1.6,1.6c-0.5,0.7-1.1,1.4-1.7,3h-3.9c0.1-1.4,0.5-2.2,1-3.6l-3.1-1.2c-0.7,1.6-1.1,2.8-1.2,4.8h-2v2.9h2
		c0.2,1.8,0.7,2.6,1.5,3.5c0.8,1,1.9,1.5,3.1,1.5c1.2,0,2.2-0.4,3-1.1c0.8-0.7,1.5-1.9,2.2-3.6l0.3-0.3h4.1
		c-0.1,0.8-0.2,1.2-0.5,2.3c-0.3,1.1-0.6,2-1,2.7h3.5c0.7-1.6,1.1-2.9,1.1-5h2.6v-2.9h-2.7c-0.2-1.8-0.7-2.6-1.5-3.6
		C137.9,214.5,136.8,214,135.4,214z M137.2,219.1h-3.3c0.3-0.6,0.4-0.7,0.6-0.9c0.2-0.2,0.7-0.4,1.1-0.4
		C136.5,217.8,137,217.9,137.2,219.1z M127.6,223.3c-0.7,0-1.4-0.4-1.4-1.3h3.1c-0.3,0.6-0.4,0.7-0.7,0.9
		C128.4,223.1,128.2,223.2,127.6,223.3z M137,250c0,2.2-1.8,4-4,4s-4-1.8-4-4c0-2.2,1.8-4,4-4S137,247.8,137,250z"/>
</g>
<g>
	<path class="st2" d="M167,220v47h-37v-47v-47h37V220z"/>
	<path class="st3" d="M172,220v52h-47v-52v-52h47V220z M130,219.5V258c4.7,0.7,8.3,4.3,9,9h20.1c0.6-4.3,3.8-7.7,7.9-8.7v-38.8
		v-38.8c-3.8-0.9-6.8-3.9-7.7-7.7h-20.5c-1,4.2-4.5,7.4-8.8,8V219.5z M153,191c0,2.2-1.8,4-4,4s-4-1.8-4-4s1.8-4,4-4
		S153,188.8,153,191z M164,220c0,7.2-7.2,13-16,13s-16-5.8-16-13s7.2-13,16-13S164,212.8,164,220z M151.4,213c-0.8,0-1.4,0.2-2,0.5
		s-1.1,0.9-1.6,1.6c-0.5,0.7-1.1,1.4-1.7,3h-3.9c0.1-1.4,0.5-2.2,1-3.6l-3.1-1.2c-0.7,1.6-1.1,2.8-1.2,4.8h-2v2.9h2
		c0.2,1.8,0.7,2.6,1.5,3.5c0.8,1,1.9,1.5,3.1,1.5c1.2,0,2.2-0.4,3-1.1c0.8-0.7,1.5-1.9,2.2-3.6l0.3-0.3h4.1
		c-0.1,0.8-0.2,1.2-0.5,2.3c-0.3,1.1-0.6,2-1,2.7h3.5c0.7-1.6,1.1-2.9,1.1-5h2.6v-2.9h-2.7c-0.2-1.8-0.7-2.6-1.5-3.6
		C153.9,213.5,152.8,213,151.4,213z M153.2,218.1h-3.3c0.3-0.6,0.4-0.7,0.6-0.9c0.2-0.2,0.7-0.4,1.1-0.4
		C152.5,216.8,153,216.9,153.2,218.1z M143.6,222.3c-0.7,0-1.4-0.4-1.4-1.3h3.1c-0.3,0.6-0.4,0.7-0.7,0.9
		C144.4,222.1,144.2,222.2,143.6,222.3z M153,249c0,2.2-1.8,4-4,4s-4-1.8-4-4c0-2.2,1.8-4,4-4S153,246.8,153,249z"/>
</g>
<g>
	<path class="st2" d="M177,218v47h-37v-47v-47h37V218z"/>
	<path class="st3" d="M182,218v52h-47v-52v-52h47V218z M140,217.5V256c4.7,0.7,8.3,4.3,9,9h20.1c0.6-4.3,3.8-7.7,7.9-8.7v-38.8
		v-38.8c-3.8-0.9-6.8-3.9-7.7-7.7h-20.5c-1,4.2-4.5,7.4-8.8,8V217.5z M163,189c0,2.2-1.8,4-4,4s-4-1.8-4-4s1.8-4,4-4
		S163,186.8,163,189z M174,218c0,7.2-7.2,13-16,13s-16-5.8-16-13s7.2-13,16-13S174,210.8,174,218z M161.4,211c-0.8,0-1.4,0.2-2,0.5
		s-1.1,0.9-1.6,1.6c-0.5,0.7-1.1,1.4-1.7,3h-3.9c0.1-1.4,0.5-2.2,1-3.6l-3.1-1.2c-0.7,1.6-1.1,2.8-1.2,4.8h-2v2.9h2
		c0.2,1.8,0.7,2.6,1.5,3.5c0.8,1,1.9,1.5,3.1,1.5c1.2,0,2.2-0.4,3-1.1c0.8-0.7,1.5-1.9,2.2-3.6l0.3-0.3h4.1
		c-0.1,0.8-0.2,1.2-0.5,2.3c-0.3,1.1-0.6,2-1,2.7h3.5c0.7-1.6,1.1-2.9,1.1-5h2.6v-2.9h-2.7c-0.2-1.8-0.7-2.6-1.5-3.6
		C163.9,211.5,162.8,211,161.4,211z M163.2,216.1h-3.3c0.3-0.6,0.4-0.7,0.6-0.9c0.2-0.2,0.7-0.4,1.1-0.4
		C162.5,214.8,163,214.9,163.2,216.1z M153.6,220.3c-0.7,0-1.4-0.4-1.4-1.3h3.1c-0.3,0.6-0.4,0.7-0.7,0.9
		C154.4,220.1,154.2,220.2,153.6,220.3z M163,247c0,2.2-1.8,4-4,4s-4-1.8-4-4s1.8-4,4-4S163,244.8,163,247z"/>
</g>
<g>
	<path class="st2" d="M190,223v47h-37v-47v-47h37V223z"/>
	<path class="st3" d="M195,223v52h-47v-52v-52h47V223z M153,222.5V261c4.7,0.7,8.3,4.3,9,9h20.1c0.6-4.3,3.8-7.7,7.9-8.7v-38.8
		v-38.8c-3.8-0.9-6.8-3.9-7.7-7.7h-20.5c-1,4.2-4.5,7.4-8.8,8V222.5z M176,194c0,2.2-1.8,4-4,4s-4-1.8-4-4s1.8-4,4-4
		S176,191.8,176,194z M187,223c0,7.2-7.2,13-16,13s-16-5.8-16-13s7.2-13,16-13S187,215.8,187,223z M174.4,216c-0.8,0-1.4,0.2-2,0.5
		s-1.1,0.9-1.6,1.6c-0.5,0.7-1.1,1.4-1.7,3h-3.9c0.1-1.4,0.5-2.2,1-3.6l-3.1-1.2c-0.7,1.6-1.1,2.8-1.2,4.8h-2v2.9h2
		c0.2,1.8,0.7,2.6,1.5,3.5c0.8,1,1.9,1.5,3.1,1.5c1.2,0,2.2-0.4,3-1.1c0.8-0.7,1.5-1.9,2.2-3.6l0.3-0.3h4.1
		c-0.1,0.8-0.2,1.2-0.5,2.3c-0.3,1.1-0.6,2-1,2.7h3.5c0.7-1.6,1.1-2.9,1.1-5h2.6v-2.9h-2.7c-0.2-1.8-0.7-2.6-1.5-3.6
		C176.9,216.5,175.8,216,174.4,216z M176.2,221.1h-3.3c0.3-0.6,0.4-0.7,0.6-0.9c0.2-0.2,0.7-0.4,1.1-0.4
		C175.5,219.8,176,219.9,176.2,221.1z M166.6,225.3c-0.7,0-1.4-0.4-1.4-1.3h3.1c-0.3,0.6-0.4,0.7-0.7,0.9
		C167.4,225.1,167.2,225.2,166.6,225.3z M176,252c0,2.2-1.8,4-4,4s-4-1.8-4-4c0-2.2,1.8-4,4-4S176,249.8,176,252z"/>
</g>
<g>
	<path class="st2" d="M187,245v47h-37v-47v-47h37V245z"/>
	<path class="st3" d="M192,245v52h-47v-52v-52h47V245z M150,244.5V283c4.7,0.7,8.3,4.3,9,9h20.1c0.6-4.3,3.8-7.7,7.9-8.7v-38.8
		v-38.8c-3.8-0.9-6.8-3.9-7.7-7.7h-20.5c-1,4.2-4.5,7.4-8.8,8V244.5z M173,216c0,2.2-1.8,4-4,4s-4-1.8-4-4s1.8-4,4-4
		S173,213.8,173,216z M184,245c0,7.2-7.2,13-16,13s-16-5.8-16-13s7.2-13,16-13S184,237.8,184,245z M171.4,238c-0.8,0-1.4,0.2-2,0.5
		s-1.1,0.9-1.6,1.6c-0.5,0.7-1.1,1.4-1.7,3h-3.9c0.1-1.4,0.5-2.2,1-3.6l-3.1-1.2c-0.7,1.6-1.1,2.8-1.2,4.8h-2v2.9h2
		c0.2,1.8,0.7,2.6,1.5,3.5c0.8,1,1.9,1.5,3.1,1.5c1.2,0,2.2-0.4,3-1.1c0.8-0.7,1.5-1.9,2.2-3.6l0.3-0.3h4.1
		c-0.1,0.8-0.2,1.2-0.5,2.3c-0.3,1.1-0.6,2-1,2.7h3.5c0.7-1.6,1.1-2.9,1.1-5h2.6v-2.9h-2.7c-0.2-1.8-0.7-2.6-1.5-3.6
		C173.9,238.5,172.8,238,171.4,238z M173.2,243.1h-3.3c0.3-0.6,0.4-0.7,0.6-0.9c0.2-0.2,0.7-0.4,1.1-0.4
		C172.5,241.8,173,241.9,173.2,243.1z M163.6,247.3c-0.7,0-1.4-0.4-1.4-1.3h3.1c-0.3,0.6-0.4,0.7-0.7,0.9
		C164.4,247.1,164.2,247.2,163.6,247.3z M173,274c0,2.2-1.8,4-4,4s-4-1.8-4-4s1.8-4,4-4S173,271.8,173,274z"/>
</g>
<g>
	<path class="st2" d="M202,235v47h-37v-47v-47h37V235z"/>
	<path class="st3" d="M207,235v52h-47v-52v-52h47V235z M165,234.5V273c4.7,0.7,8.3,4.3,9,9h20.1c0.6-4.3,3.8-7.7,7.9-8.7v-38.8
		v-38.8c-3.8-0.9-6.8-3.9-7.7-7.7h-20.5c-1,4.2-4.5,7.4-8.8,8V234.5z M188,206c0,2.2-1.8,4-4,4s-4-1.8-4-4s1.8-4,4-4
		S188,203.8,188,206z M199,235c0,7.2-7.2,13-16,13s-16-5.8-16-13s7.2-13,16-13S199,227.8,199,235z M186.4,228c-0.8,0-1.4,0.2-2,0.5
		s-1.1,0.9-1.6,1.6c-0.5,0.7-1.1,1.4-1.7,3h-3.9c0.1-1.4,0.5-2.2,1-3.6l-3.1-1.2c-0.7,1.6-1.1,2.8-1.2,4.8h-2v2.9h2
		c0.2,1.8,0.7,2.6,1.5,3.5c0.8,1,1.9,1.5,3.1,1.5c1.2,0,2.2-0.4,3-1.1c0.8-0.7,1.5-1.9,2.2-3.6l0.3-0.3h4.1
		c-0.1,0.8-0.2,1.2-0.5,2.3c-0.3,1.1-0.6,2-1,2.7h3.5c0.7-1.6,1.1-2.9,1.1-5h2.6v-2.9h-2.7c-0.2-1.8-0.7-2.6-1.5-3.6
		C188.9,228.5,187.8,228,186.4,228z M188.2,233.1h-3.3c0.3-0.6,0.4-0.7,0.6-0.9c0.2-0.2,0.7-0.4,1.1-0.4
		C187.5,231.8,188,231.9,188.2,233.1z M178.6,237.3c-0.7,0-1.4-0.4-1.4-1.3h3.1c-0.3,0.6-0.4,0.7-0.7,0.9
		C179.4,237.1,179.2,237.2,178.6,237.3z M188,264c0,2.2-1.8,4-4,4s-4-1.8-4-4s1.8-4,4-4S188,261.8,188,264z"/>
</g>
<g>
	<path class="st2" d="M215,229v47h-37v-47v-47h37V229z"/>
	<path class="st3" d="M220,229v52h-47v-52v-52h47V229z M178,228.5V267c4.7,0.7,8.3,4.3,9,9h20.1c0.6-4.3,3.8-7.7,7.9-8.7v-38.8
		v-38.8c-3.8-0.9-6.8-3.9-7.7-7.7h-20.5c-1,4.2-4.5,7.4-8.8,8V228.5z M201,200c0,2.2-1.8,4-4,4s-4-1.8-4-4s1.8-4,4-4
		S201,197.8,201,200z M212,229c0,7.2-7.2,13-16,13s-16-5.8-16-13s7.2-13,16-13S212,221.8,212,229z M199.4,222c-0.8,0-1.4,0.2-2,0.5
		s-1.1,0.9-1.6,1.6c-0.5,0.7-1.1,1.4-1.7,3h-3.9c0.1-1.4,0.5-2.2,1-3.6l-3.1-1.2c-0.7,1.6-1.1,2.8-1.2,4.8h-2v2.9h2
		c0.2,1.8,0.7,2.6,1.5,3.5c0.8,1,1.9,1.5,3.1,1.5c1.2,0,2.2-0.4,3-1.1c0.8-0.7,1.5-1.9,2.2-3.6l0.3-0.3h4.1
		c-0.1,0.8-0.2,1.2-0.5,2.3c-0.3,1.1-0.6,2-1,2.7h3.5c0.7-1.6,1.1-2.9,1.1-5h2.6v-2.9h-2.7c-0.2-1.8-0.7-2.6-1.5-3.6
		C201.9,222.5,200.8,222,199.4,222z M201.2,227.1h-3.3c0.3-0.6,0.4-0.7,0.6-0.9c0.2-0.2,0.7-0.4,1.1-0.4
		C200.5,225.8,201,225.9,201.2,227.1z M191.6,231.3c-0.7,0-1.4-0.4-1.4-1.3h3.1c-0.3,0.6-0.4,0.7-0.7,0.9
		C192.4,231.1,192.2,231.2,191.6,231.3z M201,258c0,2.2-1.8,4-4,4s-4-1.8-4-4s1.8-4,4-4S201,255.8,201,258z"/>
</g>
<path class="st4" d="M235,307l-5,12l-11,2H15l-10-4l-2-17l1-69l-2-76l1-7l7,1v80h7v3h201v-3h9v-79h5l2,5l-1,76L235,307z"/>
<path class="st5" d="M220,324H17c-9.4,0-17-7.6-17-17V153c0-3.9,3.1-7,7-7h3v5H8c-1.7,0-3,1.3-3,3v72c0,1.7,1.3,3,3,3h2h217h2
	c1.7,0,3-1.3,3-3v-72c0-1.7-1.3-3-3-3h-2v-5h3c3.9,0,7,3.1,7,7v154C237,316.4,229.4,324,220,324z M232,233.7c-0.6,0.2-1.3,0.3-2,0.3
	H7c-0.7,0-1.4-0.1-2-0.3V306c0,7.2,5.8,13,13,13h201c7.2,0,13-5.8,13-13V233.7z M217.5,315h-198c-1.4,0-2.5-1.1-2.5-2.5
	s1.1-2.5,2.5-2.5h198c1.4,0,2.5,1.1,2.5,2.5S218.9,315,217.5,315z M118.5,255c-2.5,0-4.5-2-4.5-4.5c0-2.5,2-4.5,4.5-4.5
	s4.5,2,4.5,4.5C123,253,121,255,118.5,255z"/>
<path class="st6" d="M120.5,108.4l-8.7,8.4c0,0-1.3,0.9-2.8,0.8c-1.5-0.1,0.3-11.3,0.3-11.3l1.7-4.8l6.2,2L120.5,108.4z"/>
<path class="st7" d="M136.2,120.7c0,0,3.8,1.5,5.1-2.5c1.2-4,10.7-50.1,10.7-50.1s0.7-5.7-5.1-3.7c-5.8,2-60.9,23.6-60.9,23.6
	s-4.3,2.1-0.3,4.5c-0.1,0,16.3,4.8,16.3,4.8l0.6,0.3l7.6,3.4l0.6,0.6L136.2,120.7z"/>
<path class="st8" d="M139.6,75.4c0,0,0.9-1.9-1.4-0.8c-2.3,1.1-36.2,22.8-36.2,22.8l5.3,18.3c0,0,0.7,2.3,2.2,2
	c0.3,0,0.6-5.9,0.6-5.9l0.6-10.1L139.6,75.4z"/>
</svg>