<!-- Generator: Adobe Illustrator 21.0.2, SVG Export Plug-In  -->
<svg version="1.1"
	 xmlns="http://www.w3.org/2000/svg" xmlns:xlink="http://www.w3.org/1999/xlink" xmlns:a="http://ns.adobe.com/AdobeSVGViewerExtensions/3.0/"
	 x="0px" y="0px" width="95px" height="114px" viewBox="0 0 95 114" style="enable-background:new 0 0 95 114;"
	 xml:space="preserve">
<style type="text/css">
	.st0{fill:#FFFFFF;}
</style>
<defs>
</defs>
<path class="st0" d="M49.6,113.6c-1.5,0.6-2.7,0.5-4.3,0C0.2,97,0,66,0,66V21.5c0,0,1.1-5.5,6.7-5.5C27.1,16,43.3,2.3,45.4,0.7
	c1.3-1,3.1-0.9,4.3,0C51.7,2.3,67.9,16,88.3,16c5.6,0,6.7,5.5,6.7,5.5V66C95,66,94.8,97,49.6,113.6z M45.4,111.8
	c1.5,0.5,2.7,0.6,4.1,0c19.4-7.7,30.2-18,36.2-26.9c0.9-3.4,1.4-6.9,1.4-10.6C87.2,52.1,69,34,46.6,34S6,52.1,6,74.3
	c0,2.3,0.2,4.5,0.6,6.7C11.8,90.6,22.7,102.9,45.4,111.8z M87.9,17.8c-19.6,0-36.4-13.1-38.3-14.7c-1.2-0.9-2.9-1-4.1,0
	c-2,1.6-18.7,14.7-38.3,14.7c-5.4,0-5.3,4.1-5.3,4.1v39.7c5.6-19.3,23.5-33.5,44.8-33.5c23.8,0,43.4,17.7,46.2,40.5
	c0.3-1.7,0.4-2.6,0.4-2.6V21.9C93.2,21.9,93.3,17.8,87.9,17.8z M47.2,77c-0.3,0-0.5,0-0.8,0l0-0.1c-7.8-0.4-14-6.8-14-14.6
	c0-6.9,4.9-12.8,11.4-14.3v-2.8c0-1,0.8-1.8,1.8-1.8h2.4c1,0,1.8,0.8,1.8,1.8V48c4.9,0.9,9,4.2,10.9,8.7l-0.2,0.1
	c0.1,0.4,0.2,1,0.2,1.9c0,1.5-1.2,2.7-2.7,2.7c-1,0-1.8-0.5-2.3-1.3l-0.1,0.1c-1-3.7-4.4-6.5-8.4-6.5c-4.8,0-8.7,3.9-8.7,8.7
	c0,4.8,3.9,8.7,8.7,8.7c0.3,0,0.5,0,0.8,0l0,0.1c7.8,0.4,14,6.8,14,14.6c0,7.2-5.2,13.1-12,14.4v2c0,1-0.8,1.8-1.8,1.8h-2.4
	c-1,0-1.8-0.8-1.8-1.8v-2.2c-4.6-1.1-8.4-4.3-10.2-8.6l0.2-0.1c-0.1-0.4-0.2-1-0.2-1.9c0-1.5,1.2-2.7,2.7-2.7c1,0,1.8,0.5,2.3,1.3
	l0.1-0.1c1,3.7,4.4,6.5,8.4,6.5c4.8,0,8.7-3.9,8.7-8.7C55.9,80.9,52,77,47.2,77z"/>
</svg>
