<svg xmlns="http://www.w3.org/2000/svg" xmlns:xlink="http://www.w3.org/1999/xlink" preserveAspectRatio="xMidYMid" width="71" height="54" viewBox="0 0 71 54">
  <defs>
    <style>
      .cls-1, .cls-2 {
        fill: #fff;
        fill-rule: evenodd;
      }

      .cls-1 {
        opacity: 0.2;
      }
    </style>
  </defs>
  <path d="M69.993,36.886 L68.482,38.158 L66.216,39.685 L65.713,41.465 L65.956,54.000 L46.824,54.000 L24.170,44.264 L21.652,43.246 L21.401,48.588 L26.203,54.000 L11.272,54.000 L10.071,48.843 L9.819,44.009 L5.539,42.737 L0.755,37.904 L1.007,33.325 L3.021,29.000 L8.812,26.456 L24.170,25.948 L34.493,20.351 L37.766,19.334 L39.277,4.579 L40.284,2.544 L44.060,1.018 L68.986,2.544 L69.489,5.851 L69.741,21.369 L69.741,26.965 L65.461,29.000 L65.209,31.544 L69.489,31.544 L69.993,36.886 Z" class="cls-1"/>
  <path d="M65.965,29.509 L57.656,29.509 L57.656,34.597 L57.656,35.360 L57.656,38.413 L48.827,29.509 L42.550,29.509 C39.769,29.509 37.514,27.231 37.514,24.421 L37.514,5.088 C37.514,2.278 39.769,-0.000 42.550,-0.000 L65.965,-0.000 C68.746,-0.000 71.000,2.278 71.000,5.088 L71.000,24.421 C71.000,27.231 68.746,29.509 65.965,29.509 ZM68.482,5.088 C68.482,3.683 67.355,2.544 65.965,2.544 L42.550,2.544 C41.159,2.544 40.032,3.683 40.032,5.088 L40.032,24.421 C40.032,25.826 41.159,26.965 42.550,26.965 L49.851,26.965 L52.495,29.509 L52.457,29.509 L55.138,32.133 L55.138,29.509 L55.138,27.220 L55.138,26.965 L65.965,26.965 C67.355,26.965 68.482,25.826 68.482,24.421 L68.482,5.088 ZM60.174,23.676 L54.131,20.623 L47.837,23.676 L48.844,16.807 L44.312,11.974 L50.858,10.702 L54.131,4.597 L56.901,10.702 L63.699,11.974 L58.915,16.807 L60.174,23.676 ZM59.418,13.500 L55.642,12.991 L54.131,9.684 L52.621,12.991 L49.096,13.500 L51.613,16.044 L50.858,19.605 L54.131,17.825 L57.152,19.605 L56.649,16.044 L59.418,13.500 ZM25.429,43.153 L50.509,54.000 L44.156,54.000 L23.408,45.027 L22.408,45.027 L22.408,48.090 L28.114,54.000 L24.725,54.000 L22.408,51.659 L22.408,54.000 L17.624,54.000 L17.624,51.641 L19.890,51.641 L19.890,49.606 L11.548,49.606 L12.390,54.000 L9.847,54.000 L8.837,48.843 L8.812,48.843 L8.812,44.945 C3.845,44.319 -0.000,40.040 -0.000,34.851 C-0.000,29.231 4.509,24.676 10.071,24.676 L23.415,24.676 C23.499,24.676 24.086,24.680 24.170,24.682 L35.016,20.195 L35.984,22.543 L25.429,26.986 L25.429,43.153 ZM11.330,47.062 L19.890,47.062 L19.890,45.027 L11.330,45.027 L11.330,47.062 ZM22.911,27.220 L9.980,27.220 C6.946,27.220 4.322,28.982 3.063,31.544 L6.798,31.544 L6.798,34.088 L2.318,34.088 C2.285,34.380 2.266,34.677 2.266,34.978 C2.266,35.280 2.285,35.576 2.318,35.869 L6.798,35.869 L6.798,38.413 L3.063,38.413 C4.322,40.975 6.946,42.737 9.980,42.737 L22.911,42.737 L22.911,27.220 ZM9.819,31.544 L18.883,31.544 L18.883,34.088 L9.819,34.088 L9.819,31.544 ZM61.936,54.000 L59.418,54.000 L59.418,53.930 L61.936,53.930 L61.936,54.000 ZM61.936,51.895 L59.418,51.895 L59.418,49.351 L61.936,49.351 L61.936,51.895 ZM61.936,47.571 L59.418,47.571 L59.418,45.027 L61.936,45.027 L61.936,47.571 ZM61.936,42.992 L59.418,42.992 L59.418,40.448 L61.936,40.448 L61.936,42.992 ZM61.936,38.413 L59.418,38.413 L59.418,35.869 L61.936,35.869 L61.936,38.413 ZM61.936,34.088 L59.418,34.088 L59.418,31.544 L61.936,31.544 L61.936,34.088 ZM63.950,54.000 L63.950,31.544 L66.468,31.544 L66.468,38.155 C67.650,37.657 68.482,36.481 68.482,35.106 L68.482,31.544 L70.748,31.544 L70.748,35.233 C70.748,37.860 68.913,40.052 66.468,40.578 L66.468,54.000 L63.950,54.000 Z" class="cls-2"/>
</svg>
