<svg xmlns="http://www.w3.org/2000/svg" xmlns:xlink="http://www.w3.org/1999/xlink" preserveAspectRatio="xMidYMid" width="75" height="57" viewBox="0 0 75 57">
  <defs>
    <style>
      .cls-1, .cls-2 {
        fill: #fff;
        fill-rule: evenodd;
      }

      .cls-1 {
        opacity: 0.2;
      }
    </style>
  </defs>
  <path d="M71.249,50.323 L68.925,51.097 L66.602,49.548 L54.985,37.161 L52.662,34.839 L53.178,57.000 L0.774,57.000 L0.774,15.484 L17.038,1.548 L43.369,0.774 L48.790,1.548 L51.113,2.323 L52.662,3.097 L52.662,5.419 L56.534,9.290 L59.632,14.710 L60.407,22.452 L57.309,30.194 L72.023,42.581 L73.572,44.129 L74.347,47.226 L71.249,50.323 Z" class="cls-1"/>
  <path d="M73.354,50.184 C71.123,52.488 67.446,52.549 65.140,50.319 L54.211,37.991 L54.211,57.000 L51.888,57.000 L51.888,35.589 C49.253,37.073 46.221,37.935 42.982,37.935 C34.864,37.935 27.994,32.620 25.649,25.284 C25.401,25.451 25.103,25.548 24.782,25.548 L12.391,25.548 C11.536,25.548 10.842,24.855 10.842,24.000 C10.842,23.145 11.536,22.452 12.391,22.452 L24.782,22.452 C24.860,22.452 24.935,22.463 25.009,22.475 C24.874,21.581 24.782,20.673 24.782,19.742 C24.782,17.057 25.379,14.517 26.423,12.222 C25.912,11.970 25.557,11.448 25.557,10.839 C25.557,9.984 26.250,9.290 27.106,9.290 C27.406,9.290 27.684,9.380 27.922,9.528 C30.243,6.114 33.696,3.537 37.740,2.323 L18.587,2.323 L18.587,11.613 C18.587,14.606 16.160,17.032 13.166,17.032 L2.323,17.032 L2.323,57.000 L-0.000,57.000 L-0.000,15.613 L16.392,0.000 L48.790,0.000 C51.784,0.000 54.211,2.426 54.211,5.419 L54.211,5.443 C58.449,8.774 61.181,13.934 61.181,19.742 C61.181,23.373 60.105,26.748 58.271,29.588 L73.218,41.973 C75.523,44.203 75.584,47.879 73.354,50.184 ZM16.263,3.179 L4.094,14.710 L11.617,14.710 C14.611,14.710 16.263,13.832 16.263,10.839 L16.263,3.179 ZM48.473,2.395 C49.327,2.665 50.146,3.012 50.941,3.400 C50.371,2.825 49.541,2.517 48.473,2.395 ZM58.860,19.742 C58.860,11.030 51.751,3.968 42.982,3.968 C34.212,3.968 27.104,11.030 27.104,19.742 C27.104,28.454 34.212,35.516 42.982,35.516 C51.751,35.516 58.860,28.454 58.860,19.742 ZM71.602,43.642 L56.896,31.457 C56.028,32.486 55.040,33.408 53.966,34.223 L54.172,34.455 L54.211,34.452 L54.211,34.499 L66.756,48.650 C68.139,49.988 70.345,49.952 71.684,48.569 C73.022,47.186 72.986,44.980 71.602,43.642 ZM42.982,33.871 C35.059,33.871 28.636,27.545 28.636,19.742 C28.636,16.416 29.810,13.364 31.763,10.950 C31.761,10.912 31.752,10.877 31.752,10.839 C31.752,9.984 32.446,9.290 33.301,9.290 C33.317,9.290 33.331,9.294 33.347,9.295 C35.895,7.015 39.268,5.613 42.982,5.613 C50.905,5.613 57.328,11.939 57.328,19.742 C57.328,27.545 50.905,33.871 42.982,33.871 ZM51.888,11.894 C49.687,9.528 46.518,8.032 42.982,8.032 C39.824,8.032 36.959,9.227 34.814,11.165 C34.689,11.744 34.241,12.199 33.668,12.339 C31.975,14.356 30.957,16.933 30.957,19.742 C30.957,26.209 36.341,31.452 42.982,31.452 C46.518,31.452 49.687,29.956 51.888,27.590 L51.888,11.894 ZM54.211,23.901 C54.717,22.607 55.006,21.209 55.006,19.742 C55.006,18.275 54.717,16.877 54.211,15.582 L54.211,23.901 ZM39.497,12.387 C38.641,12.387 37.948,11.694 37.948,10.839 C37.948,9.984 38.641,9.290 39.497,9.290 C40.352,9.290 41.045,9.984 41.045,10.839 C41.045,11.694 40.352,12.387 39.497,12.387 ZM44.143,54.194 C43.288,54.194 42.594,53.500 42.594,52.645 C42.594,51.790 43.288,51.097 44.143,51.097 C44.999,51.097 45.692,51.790 45.692,52.645 C45.692,53.500 44.999,54.194 44.143,54.194 ZM44.143,55.742 C44.896,55.742 45.493,56.289 45.634,57.000 L42.653,57.000 C42.793,56.289 43.391,55.742 44.143,55.742 ZM34.850,54.194 C33.995,54.194 33.301,53.500 33.301,52.645 C33.301,51.790 33.995,51.097 34.850,51.097 C35.705,51.097 36.399,51.790 36.399,52.645 C36.399,53.500 35.705,54.194 34.850,54.194 ZM34.850,55.742 C35.602,55.742 36.200,56.289 36.340,57.000 L33.360,57.000 C33.500,56.289 34.098,55.742 34.850,55.742 ZM20.910,34.065 L12.391,34.065 C11.536,34.065 10.842,33.371 10.842,32.516 C10.842,31.661 11.536,30.968 12.391,30.968 L20.910,30.968 C21.765,30.968 22.459,31.661 22.459,32.516 C22.459,33.371 21.765,34.065 20.910,34.065 ZM20.910,43.355 L12.391,43.355 C11.536,43.355 10.842,42.662 10.842,41.806 C10.842,40.951 11.536,40.258 12.391,40.258 L20.910,40.258 C21.765,40.258 22.459,40.951 22.459,41.806 C22.459,42.662 21.765,43.355 20.910,43.355 ZM21.684,54.194 L14.714,56.516 L15.682,57.000 L10.420,57.000 L9.302,56.413 L25.562,50.315 L23.236,57.000 L20.749,57.000 L21.684,54.194 ZM37.948,52.645 C37.948,51.790 38.641,51.097 39.497,51.097 C40.352,51.097 41.045,51.790 41.045,52.645 C41.045,53.500 40.352,54.194 39.497,54.194 C38.641,54.194 37.948,53.500 37.948,52.645 Z" class="cls-2"/>
</svg>
