<svg xmlns="http://www.w3.org/2000/svg" xmlns:xlink="http://www.w3.org/1999/xlink" preserveAspectRatio="xMidYMid" width="76" height="57" viewBox="0 0 76 57">
  <defs>
    <style>
      .cls-1, .cls-2 {
        fill: #fff;
        fill-rule: evenodd;
      }

      .cls-1 {
        opacity: 0.2;
      }
    </style>
  </defs>
  <path d="M73.810,27.345 L71.143,28.679 L68.143,26.679 L70.476,21.679 L72.477,22.012 C72.477,22.012 74.877,23.945 74.810,24.345 C74.743,24.745 73.810,27.345 73.810,27.345 ZM54.809,56.679 L1.675,56.679 L1.141,54.345 L4.475,52.012 L4.475,48.012 L3.808,5.679 L6.141,1.679 L8.475,1.012 L47.476,0.012 L53.143,2.679 L53.809,6.679 L53.476,32.012 L53.809,37.345 L56.809,42.012 L54.809,45.012 L54.809,56.679 Z" class="cls-1"/>
  <path d="M71.310,30.811 C70.940,30.811 70.012,30.573 69.667,30.489 L58.050,40.732 C58.111,41.027 58.143,41.332 58.143,41.645 C58.143,43.476 57.237,44.861 55.666,45.563 L55.666,57.000 L52.713,57.000 L52.713,45.694 C50.966,45.076 49.523,43.603 49.523,41.645 C49.523,41.596 49.528,41.548 49.530,41.499 L40.049,36.631 C39.225,37.558 37.837,38.333 36.499,38.333 C36.462,38.333 36.425,38.329 36.388,38.328 L29.824,48.887 C30.352,49.624 30.665,50.524 30.665,51.500 C30.665,53.985 28.651,56.000 26.165,56.000 C24.754,56.000 23.495,55.349 22.670,54.332 L10.543,57.000 L6.277,57.000 C6.334,56.842 6.449,56.793 6.449,56.575 C6.449,55.559 5.598,54.734 4.548,54.734 C3.498,54.734 2.647,55.559 2.647,56.575 C2.647,56.793 2.662,56.842 2.719,57.000 L0.035,57.000 C0.016,56.835 -0.002,56.670 -0.002,56.500 C-0.002,54.015 2.013,52.000 4.498,52.000 C6.093,52.000 7.490,52.832 8.290,54.083 L21.684,51.136 C21.869,48.821 23.803,47.000 26.165,47.000 C26.458,47.000 26.743,47.030 27.020,47.083 L33.294,36.991 C32.494,36.178 31.999,35.064 31.999,33.833 C31.999,31.348 34.014,29.333 36.499,29.333 C38.923,29.333 40.705,31.441 40.800,33.842 L50.677,38.816 C51.489,38.017 52.603,37.333 53.833,37.333 C54.781,37.333 55.850,37.817 56.575,38.318 L67.656,28.831 C67.242,28.151 67.000,27.355 67.000,26.500 C67.000,24.015 69.015,22.000 71.500,22.000 C73.985,22.000 76.000,24.015 76.000,26.500 C76.000,28.985 73.795,30.811 71.310,30.811 ZM26.213,49.641 C25.165,49.641 24.316,50.527 24.316,51.621 C24.316,52.715 25.165,53.601 26.213,53.601 C27.261,53.601 28.110,52.715 28.110,51.621 C28.110,50.527 27.261,49.641 26.213,49.641 ZM36.377,31.897 C35.274,31.897 34.380,32.783 34.380,33.877 C34.380,34.971 35.274,35.857 36.377,35.857 C37.479,35.857 38.373,34.971 38.373,33.877 C38.373,32.783 37.479,31.897 36.377,31.897 ZM53.859,39.638 C52.756,39.638 51.863,40.524 51.863,41.618 C51.863,42.712 52.756,43.599 53.859,43.599 C54.961,43.599 55.855,42.712 55.855,41.618 C55.855,40.524 54.961,39.638 53.859,39.638 ZM71.532,24.533 C70.430,24.533 69.536,25.422 69.536,26.518 C69.536,27.613 70.430,28.502 71.532,28.502 C72.634,28.502 73.528,27.613 73.528,26.518 C73.528,25.422 72.634,24.533 71.532,24.533 ZM42.332,19.000 L48.333,19.000 C49.253,19.000 49.999,19.557 49.999,20.478 C49.999,21.398 49.253,22.145 48.333,22.145 L42.332,22.145 C41.412,22.145 40.666,21.398 40.666,20.478 C40.666,19.557 41.412,19.000 42.332,19.000 ZM42.332,13.000 L48.333,13.000 C49.253,13.000 49.999,13.746 49.999,14.667 C49.999,15.587 49.253,16.333 48.333,16.333 L42.332,16.333 C41.412,16.333 40.666,15.587 40.666,14.667 C40.666,13.746 41.412,13.000 42.332,13.000 ZM18.998,19.000 C24.705,19.000 29.332,23.626 29.332,29.333 C29.332,35.040 24.705,39.667 18.998,39.667 C13.291,39.667 8.665,35.040 8.665,29.333 C8.665,23.626 13.291,19.000 18.998,19.000 ZM20.061,21.519 L20.095,28.233 L26.782,28.265 C26.550,24.695 22.596,21.531 20.061,21.519 ZM19.004,37.368 C22.793,37.368 25.958,34.339 26.782,30.784 L19.332,30.811 C19.275,30.811 19.221,30.800 19.165,30.794 C19.109,30.800 19.055,30.811 18.998,30.811 C18.078,30.811 17.522,30.065 17.522,29.145 L17.568,21.519 C14.030,22.347 11.012,25.528 11.012,29.336 C11.012,33.772 14.590,37.368 19.004,37.368 ZM55.666,34.667 L55.632,34.667 C55.478,35.427 54.996,36.000 54.189,36.000 C53.383,36.000 52.901,35.427 52.746,34.667 L52.713,34.667 L52.713,34.333 L52.713,31.667 L52.713,6.667 C52.713,4.826 50.840,2.956 48.999,2.956 L42.332,2.956 L42.332,3.623 C42.332,6.384 40.094,8.623 37.332,8.623 L20.998,8.623 C18.237,8.623 15.998,6.384 15.998,3.623 L15.998,2.956 L9.331,2.956 C7.490,2.956 5.618,4.826 5.618,6.667 L5.618,46.333 L5.618,49.000 L5.618,49.333 L5.584,49.333 C5.430,50.094 4.948,50.667 4.141,50.667 C3.335,50.667 2.853,50.094 2.698,49.333 L2.665,49.333 L2.665,49.000 L2.665,49.000 L2.665,46.333 C2.665,46.333 2.665,46.333 2.665,46.333 L2.665,7.333 C2.665,3.283 5.948,-0.000 9.998,-0.000 L48.333,-0.000 C52.383,-0.000 55.666,3.283 55.666,7.333 L55.666,31.667 L55.666,31.667 L55.666,34.333 L55.666,34.333 L55.666,34.667 ZM39.332,2.956 L18.998,2.956 L18.998,3.956 C18.998,4.876 19.745,6.000 20.665,6.000 L37.666,6.000 C38.586,6.000 39.332,4.876 39.332,3.956 L39.332,2.956 ZM43.666,49.667 C44.586,49.667 45.332,50.413 45.332,51.333 L45.332,57.000 L41.999,57.000 L41.999,51.333 C41.999,50.413 42.745,49.667 43.666,49.667 Z" class="cls-2"/>
</svg>
