<?xml version="1.0"?>
<svg xmlns="http://www.w3.org/2000/svg" height="512px" viewBox="0 0 496 496" width="512px"><path d="m368 240v-200c0-4.425781-3.574219-8-8-8h-24v-24c0-4.425781-3.574219-8-8-8h-320c-4.425781 0-8 3.574219-8 8v448c0 4.425781 3.574219 8 8 8h24v24c0 4.425781 3.574219 8 8 8h320v-.40625c2.65625.167969 5.296875.40625 8 .40625 70.574219 0 128-57.425781 128-128s-57.425781-128-128-128zm-336-200v408h-16v-432h304v16h-280c-4.425781 0-8 3.574219-8 8zm16 440v-432h304v193.113281c-63.039062 7.910157-112 61.734375-112 126.886719 0 48.160156 26.761719 90.152344 66.167969 112zm320 0c-61.761719 0-112-50.238281-112-112s50.238281-112 112-112 112 50.238281 112 112-50.238281 112-112 112zm0 0" fill="#D80027"/><path d="m368 272c-52.9375 0-96 43.0625-96 96h16c0-44.113281 35.886719-80 80-80zm0 0" fill="#D80027"/><path d="m448 368c0 44.113281-35.886719 80-80 80v16c52.9375 0 96-43.0625 96-96zm0 0" fill="#D80027"/><path d="m72 192h80c4.425781 0 8-3.574219 8-8v-24c0-18.078125-10.046875-33.839844-24.855469-42.023438 5.457031-5.746093 8.855469-13.449218 8.855469-21.976562 0-17.648438-14.351562-32-32-32s-32 14.351562-32 32c0 8.527344 3.398438 16.230469 8.855469 21.976562-14.808594 8.183594-24.855469 23.945313-24.855469 42.023438v24c0 4.425781 3.574219 8 8 8zm24-96c0-8.824219 7.175781-16 16-16s16 7.175781 16 16-7.175781 16-16 16-16-7.175781-16-16zm-16 64c0-17.648438 14.351562-32 32-32s32 14.351562 32 32v16h-64zm0 0" fill="#D80027"/><path d="m64 240h144v16h-144zm0 0" fill="#D80027"/><path d="m64 272h144v16h-144zm0 0" fill="#D80027"/><path d="m64 304h144v16h-144zm0 0" fill="#D80027"/><path d="m64 336h144v16h-144zm0 0" fill="#D80027"/><path d="m64 368h144v16h-144zm0 0" fill="#D80027"/><path d="m208 176h128v16h-128zm0 0" fill="#D80027"/><path d="m208 144h128v16h-128zm0 0" fill="#D80027"/><path d="m208 112h128v16h-128zm0 0" fill="#D80027"/><path d="m376 408c13.230469 0 24-10.769531 24-24s-10.769531-24-24-24h-16c-4.414062 0-8-3.585938-8-8s3.585938-8 8-8h40v-16h-24v-16h-16v16c-13.230469 0-24 10.769531-24 24s10.769531 24 24 24h16c4.414062 0 8 3.585938 8 8s-3.585938 8-8 8h-40v16h24v16h16zm0 0" fill="#D80027"/></svg>
