<?xml version="1.0" encoding="utf-8"?>
<!-- Generator: Adobe Illustrator 17.1.0, SVG Export Plug-In . SVG Version: 6.00 Build 0)  -->
<!DOCTYPE svg PUBLIC "-//W3C//DTD SVG 1.1//EN" "http://www.w3.org/Graphics/SVG/1.1/DTD/svg11.dtd">
<svg version="1.1" id="Layer_1" xmlns="http://www.w3.org/2000/svg" xmlns:xlink="http://www.w3.org/1999/xlink" x="0px" y="0px"
	 viewBox="0 0 512 512" enable-background="new 0 0 512 512" xml:space="preserve">
<path fill="#D80027" d="M223,445.9h-9.1c-3.8-18.8-20.5-33-40.5-33h-24.8v-27.3c0-19.1,3.8-37.7,11.3-55.3l0.8-1.7
	c8.4-19.7,12.7-40.4,12.7-61.8V256c0-15.8-6.2-30.5-17.5-41.5c-11.3-11-26.1-16.8-42-16.3c-30.9,0.9-56,27.8-56,59.9v8.7
	c0,21.4,4.3,42.2,12.7,61.8l0.7,1.7c7.5,17.6,11.3,36.2,11.3,55.3v27.3H57.8c-19.9,0-36.6,14.2-40.5,33H8.3c-4.6,0-8.3,3.7-8.3,8.3
	v49.5c0,4.6,3.7,8.3,8.3,8.3H223c4.6,0,8.3-3.7,8.3-8.3v-49.5C231.2,449.6,227.5,445.9,223,445.9z M74.3,266.8v-8.7
	c0-23.2,18-42.7,40-43.3c11.3-0.3,21.9,3.8,30,11.6c8.1,7.8,12.5,18.4,12.5,29.6v10.8c0,19.1-3.8,37.7-11.3,55.3l-0.8,1.7
	c-7.7,17.9-11.7,36.7-12.4,56.1H98.8c-0.7-19.3-4.7-38.2-12.4-56.1l-0.7-1.7C78.1,304.5,74.3,285.9,74.3,266.8z M99.1,396.4h33v16.5
	h-33V396.4z M57.8,429.4h115.6c10.8,0,19.8,6.9,23.3,16.5H34.6C38,436.3,47.1,429.4,57.8,429.4z M214.7,495.5H16.5v-33h198.2V495.5z
	"/>
<path fill="#D80027" d="M509.6,85L479,54.4V8.3c0-4.6-3.7-8.3-8.3-8.3H206.5c-4.6,0-8.3,3.7-8.3,8.3v379.9c0,4.6,3.7,8.3,8.3,8.3
	h24.8v24.8c0,4.6,3.7,8.3,8.3,8.3h264.3c4.6,0,8.3-3.7,8.3-8.3V90.8C512,88.6,511.1,86.5,509.6,85z M462.5,61.2l21.4,21.4h-21.4
	V61.2z M231.2,41.3v338.6h-16.5V16.5h247.7v21.4l-2.4-2.4c-1.5-1.5-3.6-2.4-5.8-2.4H239.5C234.9,33,231.2,36.7,231.2,41.3z
	 M495.5,412.9H247.7V49.5h198.2v41.3c0,4.6,3.7,8.3,8.3,8.3h41.3V412.9z"/>
<path fill="#D80027" d="M272.5,132.1h148.6c4.6,0,8.3-3.7,8.3-8.3V74.3c0-4.6-3.7-8.3-8.3-8.3H272.5c-4.6,0-8.3,3.7-8.3,8.3v49.5
	C264.3,128.4,267.9,132.1,272.5,132.1z M280.8,82.6h132.1v33H280.8V82.6z"/>
<path fill="#D80027" d="M264.3,148.6H479v16.5H264.3V148.6z"/>
<path fill="#D80027" d="M264.3,181.7H479v16.5H264.3V181.7z"/>
<path fill="#D80027" d="M430.2,258.7l-10.4-15.6l-13.7,9.2l16.5,24.8c1.4,2.2,3.8,3.5,6.4,3.7c0.2,0,0.3,0,0.4,0
	c2.4,0,4.8-1.1,6.4-3l41.3-49.5l-12.7-10.6L430.2,258.7z"/>
<path fill="#D80027" d="M430.2,316.5L419.8,301l-13.7,9.2l16.5,24.8c1.4,2.2,3.8,3.5,6.4,3.7c0.2,0,0.3,0,0.4,0c2.4,0,4.8-1.1,6.4-3
	l41.3-49.5l-12.7-10.6L430.2,316.5z"/>
<path fill="#D80027" d="M430.2,374.3l-10.4-15.6l-13.7,9.2l16.5,24.8c1.4,2.2,3.8,3.5,6.4,3.7c0.2,0,0.3,0,0.4,0
	c2.4,0,4.8-1.1,6.4-3l41.3-49.5l-12.7-10.6L430.2,374.3z"/>
<path fill="#D80027" d="M264.3,379.9h132.1v16.5H264.3V379.9z"/>
<path fill="#D80027" d="M264.3,322.1h132.1v16.5H264.3V322.1z"/>
<path fill="#D80027" d="M264.3,264.3h132.1v16.5H264.3V264.3z"/>
</svg>
