<!-- Generator: Adobe Illustrator 21.0.2, SVG Export Plug-In  -->
<svg version="1.1"
	 xmlns="http://www.w3.org/2000/svg" xmlns:xlink="http://www.w3.org/1999/xlink" xmlns:a="http://ns.adobe.com/AdobeSVGViewerExtensions/3.0/"
	 x="0px" y="0px" width="28px" height="34px" viewBox="0 0 28 34" style="enable-background:new 0 0 28 34;" xml:space="preserve">
<style type="text/css">
	.st0{fill:#FFFFFF;}
</style>
<defs>
</defs>
<path class="st0" d="M25.5,34H2.5C1.1,34,0,32.9,0,31.6c0,0,0-13.7,0-22c0-1.6,1.1-2.6,1.1-2.6l6.1-6c0,0,0.9-0.9,2.6-0.9
	c6.8,0,15.8,0,15.8,0C26.9,0,28,1.1,28,2.4v29.1C28,32.9,26.9,34,25.5,34z M26.1,3c0-1.3-1.1-1.2-2.5-1.2c0,0-6.8,0-13.6,0
	c-1.4,0-1.8,0.7-1.8,0.7L2.5,8.4c0,0-0.6,0.6-0.6,1.6c0,8.4,0,20.9,0,20.9c0,1.3,1.1,1.2,2.5,1.2h19.4c1.4,0,2.5,0.1,2.5-1.2V3z
	 M20.7,28.5H7.3c-0.5,0-0.9-0.4-0.9-0.9s0.4-0.9,0.9-0.9h13.3c0.5,0,0.9,0.4,0.9,0.9S21.2,28.5,20.7,28.5z M19.2,19.8L14.9,24
	c-0.1,0.1-0.2,0.2-0.3,0.2c-0.2,0.1-0.4,0.2-0.6,0.2s-0.4-0.1-0.6-0.2c-0.1,0-0.2-0.1-0.3-0.2l-4.3-4.2c-0.4-0.4-0.4-1,0-1.4
	c0.4-0.4,1-0.4,1.4,0l2.9,2.8v-8.5c0-0.5,0.4-0.9,0.9-0.9s0.9,0.4,0.9,0.9v8.5l2.9-2.8c0.4-0.4,1-0.4,1.4,0
	C19.6,18.8,19.6,19.4,19.2,19.8z M10.6,7.9c0,1.4-1.2,2.5-2.6,2.5c0,0-0.1,0-0.1,0c0,0,0,0,0,0H4.1c-0.5,0-0.9-0.4-0.9-0.9V9.4
	c0-0.5,0.4-0.9,0.9-0.9h3.7c0.1,0,0.2,0,0.3,0l0-0.1c0.3-0.1,0.5-0.3,0.5-0.6c0,0,0,0,0,0c0-0.1,0-0.1,0-0.2V4.1
	c0-0.5,0.4-0.9,0.9-0.9h0.1c0.5,0,0.9,0.4,0.9,0.9v3.6C10.6,7.8,10.6,7.8,10.6,7.9C10.6,7.9,10.6,7.9,10.6,7.9z"/>
</svg>