<?xml version="1.0" encoding="utf-8"?>
<!-- Generator: Adobe Illustrator 21.0.2, SVG Export Plug-In . SVG Version: 6.00 Build 0)  -->
<svg version="1.1" id="Layer_1" xmlns="http://www.w3.org/2000/svg" xmlns:xlink="http://www.w3.org/1999/xlink" x="0px" y="0px"
	 viewBox="0 0 365.8 512" style="enable-background:new 0 0 365.8 512;" xml:space="preserve">
<style type="text/css">
	.st0{fill:#D80027;}
</style>
<path class="st0" d="M357.4,33h-24.8V8.3c0-4.6-3.7-8.3-8.3-8.3H10.6C6,0,2.3,3.7,2.3,8.3v462.5c0,4.6,3.7,8.3,8.3,8.3h24.8v24.8
	c0,4.6,3.7,8.3,8.3,8.3h313.8c4.6,0,8.3-3.7,8.3-8.3V41.3C365.7,36.7,362,33,357.4,33z M35.4,41.3v421.2H18.8v-446h297.3V33H43.6
	C39.1,33,35.4,36.7,35.4,41.3z M349.2,495.5H51.9v-446h297.3L349.2,495.5L349.2,495.5z"/>
<path class="st0" d="M241.8,313.8c-22.8,0-41.3,18.5-41.3,41.3H217c0-13.7,11.1-24.8,24.8-24.8V313.8z"/>
<path class="st0" d="M266.6,355.1c0,13.7-11.1,24.8-24.8,24.8v16.5c22.8,0,41.3-18.5,41.3-41.3H266.6z"/>
<path class="st0" d="M296,405.8c12.5-13.3,20.2-31.1,20.2-50.7c0-41-33.3-74.3-74.3-74.3s-74.3,33.3-74.3,74.3
	c0,19.6,7.7,37.4,20.2,50.7l-34.3,34.3c-2.4,2.4-3.1,5.9-1.8,9s4.3,5.1,7.6,5.1h16.5v16.5c0,3.3,2,6.4,5.1,7.6
	c1,0.4,2.1,0.6,3.2,0.6c2.1,0,4.3-0.8,5.8-2.4l47.4-47.4c1.5,0.1,3.1,0.2,4.6,0.2s3.1-0.1,4.6-0.2l47.4,47.4
	c1.6,1.6,3.7,2.4,5.8,2.4c1.1,0,2.1-0.2,3.2-0.6c3.1-1.3,5.1-4.3,5.1-7.6v-16.5h16.5c3.3,0,6.4-2,7.6-5.1c1.3-3.1,0.6-6.6-1.8-9
	L296,405.8z M192.3,450.8V446c0-4.6-3.7-8.3-8.3-8.3h-4.8l21-21c5.4,3.6,11.3,6.5,17.5,8.7L192.3,450.8z M184,355.1
	c0-31.9,25.9-57.8,57.8-57.8s57.8,25.9,57.8,57.8s-25.9,57.8-57.8,57.8S184,387,184,355.1z M299.6,437.7c-4.6,0-8.3,3.7-8.3,8.3v4.8
	l-25.4-25.4c6.2-2.1,12.1-5,17.5-8.7l21,21L299.6,437.7L299.6,437.7z"/>
<path class="st0" d="M76.6,148.6h247.7c4.6,0,8.3-3.7,8.3-8.3v-66c0-4.6-3.7-8.3-8.3-8.3H76.6c-4.6,0-8.3,3.7-8.3,8.3v66.1
	C68.4,145,72.1,148.6,76.6,148.6z M84.9,82.6h231.2v49.5H84.9V82.6z"/>
<path class="st0" d="M68.4,165.2h264.3v16.5H68.4V165.2z"/>
<path class="st0" d="M68.4,198.2h264.3v16.5H68.4V198.2z"/>
<path class="st0" d="M68.4,231.2h99.1v16.5H68.4V231.2z"/>
<path class="st0" d="M68.4,264.3h99.1v16.5H68.4V264.3z"/>
</svg>
