<?xml version="1.0" encoding="utf-8"?>
<!-- Generator: Adobe Illustrator 21.0.2, SVG Export Plug-In . SVG Version: 6.00 Build 0)  -->
<svg version="1.1" id="Capa_1" xmlns="http://www.w3.org/2000/svg" xmlns:xlink="http://www.w3.org/1999/xlink" x="0px" y="0px"
	 viewBox="0 0 512 451" style="enable-background:new 0 0 512 451;" xml:space="preserve">
<style type="text/css">
	.st0{fill:#D80027;}
</style>
<g>
	<g>
		<path class="st0" d="M272.5,24.6v199l50.7-39.7H512V24.6H272.5z M497,168.8H318l-30.4,23.4V39.6H497V168.8L497,168.8z"/>
	</g>
</g>
<g>
	<g>
		<path class="st0" d="M0,225v159.3h189.7l49.7,39.7V225H0z M224.4,392.7L195,369.2H15V240h209.4V392.7z"/>
	</g>
</g>
<g>
	<g>
		<path class="st0" d="M81.5,174.6l-20.1-20.1l-10.6,10.6l37.4,37.4l37.4-37.4L115,154.5l-18,18c9.5-75.1,73.9-133.4,151.6-133.4
			v-15C161.8,24.1,90.2,90.2,81.5,174.6z"/>
	</g>
</g>
<g>
	<g>
		<path class="st0" d="M424.8,245.4l-37.4,37.4l10.6,10.6l18-18c-9.5,75.1-73.9,133.4-151.6,133.4v15c86.7,0,158.3-66.1,166.9-150.6
			l20.1,20.1l10.6-10.6L424.8,245.4z"/>
	</g>
</g>
<g>
	<g>
		<rect x="72.1" y="265" class="st0" width="128.3" height="15"/>
	</g>
</g>
<g>
	<g>
		<rect x="40.1" y="297.1" class="st0" width="128.3" height="15"/>
	</g>
</g>
<g>
	<g>
		<rect x="40.1" y="329.2" class="st0" width="96.2" height="15"/>
	</g>
</g>
<g>
	<g>
		<rect x="184.4" y="297.1" class="st0" width="16" height="15"/>
	</g>
</g>
<g>
	<g>
		<rect x="40.1" y="265" class="st0" width="16" height="15"/>
	</g>
</g>
<g>
	<g>
		<rect x="376.7" y="64.6" class="st0" width="96.2" height="15"/>
	</g>
</g>
<g>
	<g>
		<rect x="312.6" y="96.7" class="st0" width="160.3" height="15"/>
	</g>
</g>
<g>
	<g>
		<rect x="344.7" y="128.8" class="st0" width="80.2" height="15"/>
	</g>
</g>
<g>
	<g>
		<rect x="312.6" y="128.8" class="st0" width="16" height="15"/>
	</g>
</g>
<g>
	<g>
		<rect x="312.6" y="64.6" class="st0" width="16" height="15"/>
	</g>
</g>
<g>
	<g>
		<rect x="344.7" y="64.6" class="st0" width="16" height="15"/>
	</g>
</g>
</svg>
