<svg xmlns="http://www.w3.org/2000/svg" xmlns:xlink="http://www.w3.org/1999/xlink" preserveAspectRatio="xMidYMid" width="159" height="32" viewBox="0 0 159 32">
  <defs>
    <style>
      .cls-1 {
        fill: #505660;
        fill-rule: evenodd;
      }
    </style>
  </defs>
  <path d="M157.015,13.428 L156.955,10.930 C156.955,10.930 156.153,10.930 155.752,10.930 C155.752,14.303 155.752,17.675 155.752,21.048 C156.093,21.048 156.434,21.048 156.774,21.048 C156.774,21.630 156.774,22.213 156.774,22.796 C155.371,22.796 153.968,22.796 152.565,22.796 C152.565,22.213 152.565,21.630 152.565,21.048 C152.925,21.048 153.286,21.048 153.647,21.048 C153.647,17.675 153.647,14.303 153.647,10.930 C153.226,10.930 152.805,10.930 152.384,10.930 C152.384,11.763 152.384,12.596 152.384,13.428 C151.723,13.428 151.061,13.428 150.400,13.428 C150.400,12.013 150.400,10.597 150.400,9.182 C153.266,9.182 156.133,9.182 159.000,9.182 C159.000,10.597 159.000,12.013 159.000,13.428 C158.338,13.428 157.015,13.428 157.015,13.428 ZM145.872,22.989 C144.544,22.989 143.183,22.734 143.183,22.734 L142.401,21.985 C142.401,21.985 142.401,19.694 142.401,18.550 C143.082,18.550 143.764,18.550 144.446,18.550 C144.446,19.382 144.446,20.215 144.446,21.048 C145.388,21.048 147.272,21.048 147.272,21.048 L147.272,17.426 L143.255,15.491 C143.255,15.491 142.521,14.594 142.461,14.552 C142.461,13.054 142.461,10.056 142.461,10.056 L143.303,9.182 C143.303,9.182 144.711,8.995 145.949,8.995 C147.187,8.995 148.415,9.182 148.415,9.182 L149.197,9.994 L149.197,13.428 C149.197,13.428 147.834,13.428 147.152,13.428 C147.152,12.596 147.152,11.763 147.152,10.930 C146.290,10.930 145.428,10.930 144.566,10.930 C144.566,11.868 144.566,12.804 144.566,13.741 C145.657,14.246 148.356,15.612 148.595,15.802 C148.615,15.865 149.297,16.614 149.377,16.676 C149.377,18.446 149.377,21.922 149.377,21.922 L148.598,22.715 C148.554,22.720 147.200,22.989 145.872,22.989 ZM136.687,21.048 C137.028,21.048 137.369,21.048 137.710,21.048 C137.710,17.675 137.710,14.303 137.710,10.930 C137.369,10.930 137.028,10.930 136.687,10.930 C136.687,10.348 136.687,9.765 136.687,9.182 C138.091,9.182 139.494,9.182 140.897,9.182 C140.897,9.744 140.897,10.306 140.897,10.869 C140.637,10.964 140.170,10.935 139.815,10.930 C139.815,14.303 139.815,17.675 139.815,21.048 C140.176,21.048 140.537,21.048 140.897,21.048 C140.897,21.630 140.897,22.213 140.897,22.796 C139.494,22.796 138.091,22.796 136.687,22.796 C136.687,22.213 136.687,21.630 136.687,21.048 ZM131.094,21.048 C131.435,21.048 131.776,21.048 132.117,21.048 C132.117,19.529 132.117,18.008 132.117,16.489 C131.094,16.489 130.072,16.489 129.050,16.489 C129.050,17.988 129.050,19.487 129.050,20.985 C129.310,21.081 129.777,21.052 130.132,21.048 C130.132,21.630 130.132,22.213 130.132,22.796 C128.729,22.796 127.325,22.796 125.922,22.796 C125.922,22.213 125.922,21.630 125.922,21.048 C126.283,21.048 126.644,21.048 127.005,21.048 C127.005,17.675 127.005,14.303 127.005,10.930 C126.644,10.930 126.283,10.930 125.922,10.930 C125.922,10.348 125.922,9.765 125.922,9.182 C127.325,9.182 128.729,9.182 130.132,9.182 C130.132,9.765 130.132,10.348 130.132,10.930 C129.771,10.930 129.410,10.930 129.050,10.930 C129.050,12.179 129.050,13.428 129.050,14.678 C130.072,14.678 131.094,14.678 132.117,14.678 C132.117,13.428 132.117,12.179 132.117,10.930 C131.776,10.930 131.435,10.930 131.094,10.930 C131.094,10.348 131.094,9.765 131.094,9.182 C132.498,9.182 133.901,9.182 135.304,9.182 C135.304,9.744 135.304,10.306 135.304,10.869 C135.044,10.964 134.577,10.935 134.222,10.930 C134.222,14.303 134.222,17.675 134.222,21.048 C134.582,21.048 134.943,21.048 135.304,21.048 C135.304,21.630 135.304,22.213 135.304,22.796 C133.901,22.796 132.498,22.796 131.094,22.796 C131.094,22.213 131.094,21.630 131.094,21.048 ZM121.592,17.488 C120.934,17.488 119.968,17.363 119.968,17.363 C119.968,17.363 119.968,19.819 119.968,21.048 C120.369,21.048 120.770,21.048 121.171,21.048 C121.171,21.630 121.171,22.213 121.171,22.796 C119.728,22.796 118.284,22.796 116.841,22.796 C116.841,22.213 116.841,21.630 116.841,21.048 C117.182,21.048 117.523,21.048 117.863,21.048 C117.863,17.675 117.863,14.303 117.863,10.930 C117.523,10.930 117.182,10.930 116.841,10.930 C116.841,10.348 116.841,9.765 116.841,9.182 C117.623,9.182 119.186,9.182 119.186,9.182 C119.172,9.181 120.670,9.017 121.399,9.017 C122.128,9.017 123.938,9.182 123.938,9.182 L124.780,10.056 L124.780,16.427 L123.998,17.238 C123.998,17.238 122.250,17.488 121.592,17.488 ZM122.735,10.930 C121.813,10.930 120.890,10.930 119.968,10.930 C119.968,12.471 119.968,14.011 119.968,15.552 C120.870,15.552 121.773,15.552 122.675,15.552 C122.728,15.483 122.669,15.546 122.735,15.490 C122.735,13.970 122.735,12.450 122.735,10.930 ZM112.330,21.048 C112.631,21.048 113.293,21.048 113.293,21.048 L112.932,18.487 L110.346,18.487 L109.925,21.048 C109.925,21.048 110.566,21.048 110.887,21.048 C110.887,21.630 110.887,22.213 110.887,22.796 C108.702,22.796 104.271,22.796 104.271,22.796 L102.467,18.425 L101.806,16.676 L100.964,16.676 L100.964,21.048 L101.986,21.048 C101.986,21.048 101.986,22.213 101.986,22.796 C100.603,22.796 99.219,22.796 97.836,22.796 C97.836,22.213 97.836,21.630 97.836,21.048 C98.177,21.048 98.859,21.048 98.859,21.048 L98.919,21.048 C98.919,21.048 98.919,14.282 98.919,10.930 C98.558,10.930 98.197,10.930 97.836,10.930 C97.836,10.348 97.836,9.765 97.836,9.182 C98.618,9.182 100.182,9.182 100.182,9.182 C100.182,9.182 101.791,8.995 102.347,8.995 C102.903,8.995 104.933,9.245 104.933,9.245 C104.933,9.245 105.511,9.805 105.775,10.056 C105.775,11.950 105.775,13.844 105.775,15.740 C105.494,16.010 105.214,16.281 104.933,16.551 C104.632,16.572 104.332,16.593 104.031,16.614 C104.072,17.018 104.321,17.307 104.452,17.613 C104.630,18.030 104.693,18.379 104.873,18.800 C104.997,19.089 105.230,19.447 105.354,19.736 C105.459,19.982 105.733,20.958 105.895,21.048 C106.176,21.048 106.737,21.048 106.737,21.048 C106.737,21.048 107.502,21.040 107.820,21.048 C107.879,20.322 109.925,9.182 109.925,9.182 C109.925,9.182 112.270,9.182 113.413,9.182 C113.466,9.251 115.458,21.048 115.458,21.048 C115.458,21.048 116.139,21.048 116.480,21.048 C116.480,21.630 116.480,22.213 116.480,22.796 C115.117,22.796 113.693,22.796 112.330,22.796 C112.330,22.213 112.330,21.630 112.330,21.048 ZM103.730,10.930 C102.828,10.930 101.926,10.930 101.024,10.930 C101.024,12.221 101.024,13.512 101.024,14.803 C101.926,14.803 102.828,14.803 103.730,14.803 C103.730,13.512 103.730,12.221 103.730,10.930 ZM112.270,14.740 C112.250,14.428 112.230,14.116 112.210,13.804 C111.991,12.909 111.900,11.810 111.789,10.869 C111.689,10.869 111.589,10.869 111.488,10.869 C111.228,12.804 110.967,14.741 110.707,16.676 C111.308,16.676 111.909,16.676 112.511,16.676 C112.519,15.985 112.408,15.315 112.270,14.740 ZM92.664,22.984 C91.877,22.984 89.657,22.734 89.657,22.734 L88.935,21.985 L88.935,9.994 L89.717,9.245 C89.717,9.245 91.336,8.995 92.604,8.995 C93.872,8.995 95.611,9.245 95.611,9.245 L96.333,10.056 C96.333,10.056 96.333,12.284 96.333,13.428 C95.651,13.428 94.970,13.428 94.288,13.428 C94.288,12.596 94.288,11.763 94.288,10.930 C93.186,10.930 92.083,10.930 90.980,10.930 C90.980,14.303 90.980,17.675 90.980,21.048 C92.083,21.048 93.186,21.048 94.288,21.048 C94.288,19.840 94.288,18.632 94.288,17.426 C93.667,17.426 93.045,17.426 92.424,17.426 C92.424,16.822 92.424,16.218 92.424,15.614 C93.727,15.614 95.030,15.614 96.333,15.614 C96.333,17.738 96.333,21.985 96.333,21.985 L95.611,22.734 C95.611,22.734 93.451,22.984 92.664,22.984 ZM79.133,21.048 C79.473,21.048 79.814,21.048 80.155,21.048 C80.208,20.979 80.149,21.041 80.215,20.985 C80.215,17.634 80.215,14.282 80.215,10.930 C79.854,10.930 79.493,10.930 79.133,10.930 C79.133,10.348 79.133,9.765 79.133,9.182 C81.738,9.182 84.345,9.182 86.951,9.182 C86.951,10.577 86.951,13.366 86.951,13.366 L84.906,13.428 C84.906,13.428 84.906,11.805 84.906,10.993 C84.321,10.781 82.991,10.926 82.260,10.930 C82.260,12.179 82.260,13.428 82.260,14.678 C83.202,14.678 84.144,14.678 85.086,14.678 C85.086,15.282 85.086,15.885 85.086,16.489 C84.144,16.489 83.202,16.489 82.260,16.489 C82.260,17.988 82.260,19.487 82.260,20.985 C83.162,20.985 84.064,20.985 84.966,20.985 C84.966,20.173 84.966,19.362 84.966,18.550 C85.648,18.550 86.329,18.550 87.011,18.550 C87.011,19.965 87.011,21.380 87.011,22.796 C84.385,22.796 81.758,22.796 79.133,22.796 C79.133,22.213 79.133,21.630 79.133,21.048 ZM70.592,21.048 C70.933,21.048 71.274,21.048 71.615,21.048 C71.668,20.979 71.609,21.041 71.675,20.985 C71.675,17.634 71.675,14.282 71.675,10.930 C71.314,10.930 70.953,10.930 70.592,10.930 C70.592,10.348 70.592,9.765 70.592,9.182 C72.076,9.182 73.560,9.182 75.043,9.182 C75.043,9.765 75.043,10.348 75.043,10.930 C74.602,10.930 74.161,10.930 73.720,10.930 C73.720,14.282 73.720,17.634 73.720,20.985 C74.562,20.985 75.404,20.985 76.246,20.985 C76.246,20.173 76.246,19.362 76.246,18.550 C76.947,18.550 77.649,18.550 78.351,18.550 C78.351,19.965 78.351,21.380 78.351,22.796 C75.765,22.796 73.178,22.796 70.592,22.796 C70.592,22.213 70.592,21.630 70.592,21.048 ZM61.271,21.048 C61.611,21.048 61.952,21.048 62.293,21.048 C62.293,21.027 62.293,21.007 62.293,20.985 C62.313,20.985 62.333,20.985 62.353,20.985 C62.353,17.634 62.353,14.282 62.353,10.930 C61.992,10.930 61.631,10.930 61.271,10.930 C61.271,10.348 61.271,9.765 61.271,9.182 C63.876,9.182 66.483,9.182 69.089,9.182 C69.089,10.577 69.089,11.972 69.089,13.366 C68.582,13.551 67.664,13.433 67.044,13.428 C67.044,12.617 67.044,10.930 67.044,10.930 L64.398,10.930 C64.398,10.930 64.398,13.428 64.398,14.678 C65.340,14.678 66.282,14.678 67.225,14.678 C67.225,15.282 67.225,15.885 67.225,16.489 C66.282,16.489 65.340,16.489 64.398,16.489 C64.398,17.988 64.398,19.487 64.398,20.985 C65.300,20.985 66.202,20.985 67.104,20.985 C67.104,20.173 67.104,19.362 67.104,18.550 C67.786,18.550 68.467,18.550 69.149,18.550 C69.149,19.965 69.149,21.380 69.149,22.796 C66.523,22.796 63.896,22.796 61.271,22.796 C61.271,22.213 61.271,21.630 61.271,21.048 ZM58.564,10.930 C58.163,10.930 57.762,10.930 57.361,10.930 C57.361,14.303 57.361,17.675 57.361,21.048 C57.702,21.048 58.043,21.048 58.384,21.048 C58.384,21.630 58.384,22.213 58.384,22.796 C56.981,22.796 55.577,22.796 54.174,22.796 C54.174,22.213 54.174,21.630 54.174,21.048 C54.535,21.048 54.896,21.048 55.256,21.048 C55.256,17.675 55.256,14.303 55.256,10.930 C54.836,10.930 54.414,10.930 53.994,10.930 C53.994,11.763 53.994,12.596 53.994,13.428 C53.332,13.428 52.670,13.428 52.009,13.428 C52.009,12.013 52.009,10.597 52.009,9.182 C54.875,9.182 57.743,9.182 60.609,9.182 C60.609,10.597 60.609,12.013 60.609,13.428 C59.948,13.428 58.624,13.428 58.624,13.428 C58.624,13.428 58.560,11.679 58.564,10.930 ZM30.656,11.312 L30.656,10.093 L30.656,1.750 L4.375,1.750 L4.375,10.093 L4.375,11.312 L4.375,19.000 L-0.000,19.000 L-0.000,10.093 L2.625,10.093 L2.625,-0.001 L3.656,-0.001 L4.375,-0.001 L30.656,-0.001 L32.375,-0.001 L32.375,10.093 L35.031,10.093 L35.031,19.000 L30.656,19.000 L30.656,11.312 ZM14.562,31.999 L7.375,31.999 L7.375,29.531 L14.562,29.531 L14.562,31.999 ZM26.443,6.460 L19.745,26.020 L15.786,17.578 L8.073,13.460 L26.443,6.460 ZM18.844,31.999 L16.375,31.999 L16.375,29.531 L18.844,29.531 L18.844,31.999 ZM27.656,31.999 L20.469,31.999 L20.469,29.531 L27.656,29.531 L27.656,31.999 Z" class="cls-1"/>
</svg>
