<?xml version="1.0" encoding="utf-8"?>
<!-- Generator: Adobe Illustrator 21.0.2, SVG Export Plug-In . SVG Version: 6.00 Build 0)  -->
<svg version="1.1" id="Layer_1" xmlns="http://www.w3.org/2000/svg" xmlns:xlink="http://www.w3.org/1999/xlink" x="0px" y="0px"
	 viewBox="0 0 251.5 70.6" style="enable-background:new 0 0 251.5 70.6;" xml:space="preserve">
<style type="text/css">
	.st0{fill:#DA1F11;}
	.st1{fill:#0A2431;}
	.st2{fill:#0B2532;}
	.st3{fill:#0C2633;}
	.st4{fill:#0B2531;}
	.st5{fill:#0C2532;}
	.st6{fill:#0F2835;}
	.st7{fill:#102A36;}
	.st8{fill:#FEFDFD;}
	.st9{fill:#FDF8F8;}
	.st10{font-family:'Roboto-Light';}
	.st11{font-size:16.8099px;}
</style>
<g>
	<rect class="st0" width="51.1" height="67.3"/>
	<path class="st1" d="M250,50.9c-3.1,0-6.3,0-10,0c0-5.1,0-9.9,0-14.6s0-9.3,0-14c0-2.8,0-5.6-2.2-8.2c4.3-2.2,12.1-6.1,12.1-6.1
		C250,22.2,250,36.6,250,50.9z"/>
	<path class="st1" d="M87.3,50.9c-3.1,0-6.3,0-10,0c0,0,0-9.9,0-14.6s0-9.3,0-14c0-2.8,0-5.6-2.2-8.2C79.4,11.9,87.2,8,87.2,8
		C87.3,22.2,87.3,36.6,87.3,50.9z"/>
	<path class="st2" d="M175.3,25.2c3.4-1,6.3-3,9.5-4.8c0,10.1,0,20.5,0,30.5h-9.5C175.3,42.3,175.3,33.9,175.3,25.2z"/>
	<path class="st3" d="M153.7,26.5c3.8-2,7.2-3.9,11.1-6.1c0,10.2,0,20.3,0,30.4h-9.2V33.2C155.7,29.8,154.4,28.3,153.7,26.5z"/>
	<path class="st1" d="M97.2,24.9c3.4-1,6.4-1.8,9.7-3.5c0,10,0,19.8,0,29.5c-3.2,0-6.3,0-9.7,0C97.2,42.4,97.2,33.6,97.2,24.9z"/>
	<path class="st4" d="M135.8,50.9c0-10.1,0-19.6,0-29.1c6,1.1,9.8,6,10.2,12.8c0,0.7,0,1.3,0,2c0,4.5,0,9.6,0,14.3L135.8,50.9z"/>
	<path class="st4" d="M116.5,50.9c0-10.1,0-19.6,0-29.1c6,1.1,9.8,6,10.2,12.8c0,0.7,0,1.3,0,2c0,4.5,0,9.6,0,14.3L116.5,50.9z"/>
	<path class="st1" d="M232.9,50.9c-3.7,0-6.7,0-10,0c0-9.8,0-19.6,0-29.2c6,1.7,9.6,6.1,10,12.3V50.9z"/>
	<path class="st5" d="M70,23.2c-4.6,9.4-4.6,15.7-0.2,26.9c-8.8-0.4-14.4-6.1-14-14.4C56.1,28.3,62.4,22.8,70,23.2z"/>
	<path class="st6" d="M214.5,35.9c-4.8,6.2-4.8,8.3,0.1,14.8c-4.8,0.1-9.5,0.5-12.5-4.1c-1.5-2.3-1.4-4.9,0.2-7
		C205.3,35.4,209.8,35.7,214.5,35.9z"/>
	<path class="st6" d="M160.9,16.1c-3,0.1-5.5-2.2-5.6-5.2c0-2.7,2.2-5.1,5-5.3c3.1-0.2,5.6,1.9,5.7,4.9
		C166.2,13.6,164,16,160.9,16.1z"/>
	<path class="st6" d="M188.6,27.6c1.3-3.4,3.2-5.4,5.8-6.6c2.3-1,4.6-0.7,6.3,1.4c1.5,1.9,1.5,4,0,5.9c-1.7,2-4,2.4-6.2,1
		C192.8,28.2,191,27.7,188.6,27.6z"/>
	<path class="st7" d="M213,20.8c-0.4,2.5-0.1,4.6,0.2,6.7c0.4,2.4-0.8,4.2-3.2,5c-2,0.7-3.6,0-4.9-1.5c-1.6-1.9-1.6-3.9-0.1-5.9
		C206.9,22.4,209.6,21.3,213,20.8z"/>
	<path class="st8" d="M48.3,50.8c-4.1,0-7.2,0-10.7,0c-5-10-16.4-31.7-16.4-31.7s3.7-8.1,5.3-11.8C34,22,41,36.1,48.3,50.8z"/>
	<path class="st9" d="M4.1,50.6c0,0,3-3.1,4.3-4.8c1.4-1.8,4-5.8,4-5.8c2.7,3.8,5.1,7.6,9.6,10.6C15.5,50.6,10,50.6,4.1,50.6z"/>
</g>
<text transform="matrix(1.0869 0 0 1 88.9736 67.2342)" class="st3 st10 st11">БЮРО ПЕРЕВОДОВ</text>
</svg>
