<?xml version="1.0" encoding="utf-8"?>
<!-- Generator: Adobe Illustrator 17.1.0, SVG Export Plug-In . SVG Version: 6.00 Build 0)  -->
<!DOCTYPE svg PUBLIC "-//W3C//DTD SVG 1.1//EN" "http://www.w3.org/Graphics/SVG/1.1/DTD/svg11.dtd">
<svg version="1.1" id="Capa_1" xmlns="http://www.w3.org/2000/svg" xmlns:xlink="http://www.w3.org/1999/xlink" x="0px" y="0px"
	 viewBox="0 0 512 512" enable-background="new 0 0 512 512" xml:space="preserve">
<circle fill="#DA2427" cx="256" cy="256" r="240.5"/>
<g>
	<g>
		<path fill="#FFFFFF" d="M141.2,213.2c3.6,2.5,14.4,10.1,32.5,22.6c18.1,12.5,31.9,22.2,41.6,28.9c1.1,0.7,3.3,2.4,6.7,4.8
			c3.4,2.5,6.3,4.5,8.6,6c2.3,1.5,5,3.3,8.2,5.2c3.2,1.9,6.3,3.3,9.1,4.3c2.9,1,5.5,1.4,7.9,1.4h0.2h0.2c2.4,0,5.1-0.5,7.9-1.4
			c2.9-0.9,5.9-2.4,9.1-4.3c3.2-1.9,6-3.6,8.2-5.2c2.3-1.5,5.1-3.5,8.6-6c3.4-2.5,5.7-4.1,6.7-4.8c9.7-6.8,34.5-24,74.2-51.6
			c7.7-5.4,14.2-11.9,19.3-19.5c5.2-7.6,7.8-15.6,7.8-23.9c0-7-2.5-13-7.5-17.9c-5-5-11-7.5-17.8-7.5H139.3
			c-8.1,0-14.4,2.7-18.8,8.2c-4.4,5.5-6.6,12.4-6.6,20.6c0,6.7,2.9,13.9,8.7,21.7C128.4,202.6,134.6,208.7,141.2,213.2z"/>
		<path fill="#FFFFFF" d="M382.3,230.1c-34.7,23.5-61,41.7-79,54.7c-6,4.4-10.9,7.9-14.7,10.4c-3.8,2.5-8.7,5-15,7.6
			c-6.2,2.6-12.1,3.9-17.4,3.9H256h-0.2c-5.4,0-11.2-1.3-17.4-3.9c-6.2-2.6-11.2-5.1-15-7.6c-3.8-2.5-8.6-5.9-14.7-10.4
			c-14.3-10.5-40.6-28.7-78.8-54.7c-6-4-11.4-8.6-16-13.8v125.9c0,7,2.5,13,7.5,17.9c5,5,10.9,7.5,17.9,7.5h233.5
			c7,0,13-2.5,17.9-7.5c5-5,7.5-10.9,7.5-17.9V216.3C393.6,221.4,388.3,226,382.3,230.1z"/>
	</g>
</g>
</svg>
