<!-- Generator: Adobe Illustrator 21.0.2, SVG Export Plug-In  -->
<svg version="1.1"
	 xmlns="http://www.w3.org/2000/svg" xmlns:xlink="http://www.w3.org/1999/xlink" xmlns:a="http://ns.adobe.com/AdobeSVGViewerExtensions/3.0/"
	 x="0px" y="0px" width="274.4px" height="183.1px" viewBox="0 0 274.4 183.1" style="enable-background:new 0 0 274.4 183.1;"
	 xml:space="preserve">
<style type="text/css">
	.st0{fill:#C6C6C5;}
	.st1{fill:#D1D1D1;}
	.st2{fill:#D80027;}
</style>
<defs>
</defs>
<g>
	<path class="st0" d="M114.3,162.4c-2.8-2-5.8-1.9-8.3,0.2c-1.7,1.4-3.7,1.4-5.5,2.3c-2.1,1.1-4.6-0.4-6-2.3c-0.8-1-2.9-3.5,1.1-3.4
		c0.7,0,1.5-0.2,1.6-0.9c0.6-4.3,3.6-7,6.4-10c1.2-1.3,1.4-3.4,0.7-5.5c-1.2-3.8-0.9-3.9,3.1-5.6c0.8,0.5-0.2,2.8,2,2.1
		c2.5-1.2,5.3,0,7.3,0.7s3.3,0.1,5.8,0.2c-2.5-1.8-3.7-3.4-3.2-5.8c0.5-2.2-0.5-3.7-2.6-4.7c-3.4-1.5-4-4.4-3.4-7.8
		c0.2-1.2,0.8-2.6-1.8-2.1c-1.6,0.3-1.9-2.4-3.4-3.2c-2.2-1.1-0.8-2.8-0.6-4.3c0.2-1.4,0.2-2.9,0.5-4.3c0.2-1.2-0.7-2.6-1-2.6
		c-3.5,0.6-4.4-2.4-6.3-4c-0.6-0.5-2-1.5-3.1-0.4c-0.3,0.3-0.6,1.2-1,0.5c-1.8-3.6-6.2-3.3-8.7-6c-2.1-2.4-4.7-2.5-7.7-1.3
		c-1.1,0.5-2.2,1.5-3.7,1.2c-4.5-0.6-7.6,2.8-11.6,3.7c-0.7,0.1-1.3,0.5-1.4,1.2c-0.6,3.9-3.8,4.2-6.7,4.7c-2,0.4-3.9,0.8-5.9,1
		c-2.1,0.1-3.7,0.4-5,2.5c-1.4,2.3-3.3,2.4-5.3,0.2c-2.3-2.4-4.5-4.9-8.5-2.8c-1,0.5-2.9-0.4-4.2-0.9c-3.6-1.4-8,0.3-11.3-2.7
		c-0.8-0.8-1.7,0.1-2.4,0.9c-1.2,1.4-2.1,1.7-3.6-0.4c-1.3-1.8-4-2.8-6.1-4.2c-2-1.3-2.2-3.6-4-4.8c-0.7-0.5-0.7-2.3-0.1-2.8
		c2.6-2.4,3-5.8,4.3-8.8s3.3-2.4,5.5-1.9c0.7-0.4,0.3-0.9,0.2-1.4c-2.7-4.1-2.6-10.7,0.2-14.5c3.6-5,7.4-9.8,12-14
		c1.1-1,1.9-2,3.6-2.3c3.1-0.7,4.6-3.8,3.6-6.9c-0.4-1.3-2.5-2.6,0.1-3.9c0.4-0.2,0-1-0.4-1.2c-2-1.3-1.8-4-3.2-5.5
		c-2.8-2.8-2.6-6.5-3.6-9.8c-0.7-2.2,0.5-3.6,2.5-2.6c4,2,6-0.8,7.2-3.1c1.5-2.8,3.3-3.3,6-3.1c1.7,0.1,3.3-0.4,4.9-0.7
		c5.6-1,11.3-0.9,16.6,0.5c4.9,1.2,10,2.1,14.7,3.6c3.2,1.1,6.1,3.7,9.8,4.4c0.6,3.6,1.3,2.8,2.1,0c0.3-1.1,1.3-0.6,2-0.2
		c1,0.5,1.9,0.5,2.7-0.4c0.3-0.4,0.7-0.6,1.1-1c1.4,3,5.8,0,6.9,3.5c0.5,1.4,1.3,1.5,1.9,0.1c0.4-0.8,0.9-1.3,1.6-1.8
		c3.7-2.5,3.9-2.5,5.4,1.6c0.9,2.5,2,2.9,4.4,1.6c3-1.5,6.5-1,9.7-1c1.6,0,2.4,2,3.2,3.5c0.5,0.8,1.4,1.6,2.5,1.1
		c1-0.4,1.4-1.4,1.4-2.5c0-0.8,0-1.7-0.3-2.5c-0.9-2-0.7-3.7,0.1-5.7c1.3-3.3,3.8-5.8,5.7-8.7c0.2-0.3,1.2-0.3,1.9-0.3
		c0.6,0.1,1.6,0.7,1.9,0.5c3.6-2.9,7.1-1,10.7,0.1c3,0.9,4.9-0.3,6.1-3.4c1.3-3.5,1.4-3.5,5.1-2.1c2.2,0.8,4.1,0.9,6-0.8
		c1.8-1.6,3.8-1.8,6-0.8c0.5,0.3,1,1.1,1.7,0.6c1.9-1.4,3.6-1.8,4.9,0.6c0.9,1.6,3.1,2.3,2.7,5c-0.3,1.8,1.2,3.3,2.6,4.6
		c3.8,3.6,3.8,3.7-1.8,5.8c1.5,3,2.3,6.1,2.2,9.4c0,1.1,0.4,1.1,1,1c2-0.2,3.9,0,5.4,1.6c0.1,0.1,0.3,0.2,0.4,0.2
		c1.8,0.5,3.2-1.7,5.2-0.7c1.7,0.8,0.3,4.1,3.2,3.8c1.1-0.1,1,0.4,0.9,1.2c-0.4,1.9,0.6,3.5,1.5,5c0.5,0.9,1,1.8,0.4,2.8
		c-1.7,2.7,0.5,4.2,1.7,6.1c0.9,1.5,1.8,1.6,3.2,0.7c2.8-1.9,5.3-1.8,7,1.5c1,1.9,3.3-0.3,4.3,1.4c1.7,2.8,2.9,0,3.8-0.7
		c2.7-1.9,6.1-1.1,8.9-3c1.6-1.1,2.9,1.8,3.2,2.9c0.9,3.3,3.3,5.2,5.6,7.3c1.7,1.4,2.9,2.7,3.8-0.6c0.3-1.1,1.3-1.4,1.8-0.7
		c2.4,2.9,6.6,2.3,9.1,4.8c0.8,0.8,1.7,1,2.7,0.4c0.3-0.2,0.6-0.3,0.9-0.5c1.2,3.5,6,1,7.3,4.3c0.6,1.5,1.8,1.8,2.9,2.5
		c1.6,1,3.1-2.5,4.8-0.1c-2.2,2.6,1.8,5,0.2,7.5c-1.1,1.6-2.4,3.2-3.8,4.5c-0.7,0.7-2.8-0.1-2.6,1.6c0.2,1.5,1.6,2.5,3.3,2.6
		c0.6,0,1.3,0.2,1.9,0.3c-0.3,1.3-1,1.8-2.2,1.4c-2.1-0.7-2.6,1.1-3.2,2.3c-0.6,1.3,0,2.2,1.4,2.6c1.2,0.3,1.2,1.4,1.4,2.4
		c0.7,3,2,6.1-0.3,8.9c-1.5,1.8,0.4,5.1-2.3,6c-2,0.6-4.2,0-6.4-0.4c-1.4-0.2-2.9,0.1-4.3-0.4c-1.4-0.5-2.7,0.1-3.2,1.6
		c-0.5,1.8-1.8,3.1-3.4,3.3c-5,0.5-4.9,4.3-4.8,7.6c0.1,1.4-0.8,2.4-0.6,3.7c0.1,1.2-0.6,1.8-1.9,1.2c-2.1-0.9-4.2,0.2-6.4-0.1
		c-0.7-0.1-1.5-0.1-1.8,0.4c-2.2,4.4-8.2,2.7-10.7,6.6c-0.4,0.7-1.1,0.6-1.7,0.2c-1.2-0.8-2.3-0.2-3.3,0.3c-2.6,1.5-5.3,2-8.3,2.1
		c-3.5,0.2-5.4,3.6-8.1,5.5c-0.8,0.6-1.4,2.3-2.7,0.5c-0.4-0.3-0.4-0.8-0.5-1.3c0,0.5-0.1,0.9-0.5,1.2c-0.8,1-1.5,2.2-2.7,2.9
		c-3.6,2-3.5,2-2.5,5.9c1.3,5,4.1,9.1,7.3,12.9c2.2,2.7,3.8,2.9,6.2,0.3c1.3-1.5,1.8-1.3,2.8-0.1c0.2,0.2,1.2,0.2,1.4,0
		c3-3.3,6-1.1,9.5-0.3c-1.7,1.9-4.7,2.8-3.3,5.9c0.3,0.7-0.1,1.3-0.9,1.4c-3.2,0.6-6.4,2-9.6-0.3c-1.9-1.4-3.6-1.6-5.4,0.9
		c-1.9,2.7-4.8,4.4-8.5,4.6c-3,0.2-5.4,1.6-7.3,4.5c-3.5,5.3-6.8,5.7-12.1,2.6c-2.1-1.2-2.3-1.7-0.8-3.7c1.2-1.5,1-3.9,1.6-5.9
		c0.7-2.4-1.7-4.9-4.6-5.2c-1.1-0.1-1.9-0.5-2.6-1.1c-2.2-2.2-4.4-4.1-7.9-2.3c-0.8,0.4-1.6-0.2-1.8-1.2c-0.2-1.2,0.6-1.8,1.4-2.4
		c4.4-2.9,8.7-6,13.8-7.5c2.8-0.8,3-1.9,2.1-4.6c-0.8-2.1-1-2.1-2.3-0.6c-0.2,0.3-1.1,0.3-1.4,0.1c-3.9-3.2-8.2-1-12.2-0.6
		c-2.1,0.2-3.9,0.2-5.5-1.1c-2.1-0.6-4.3-1-5.9-2.7c-0.3-0.4-0.3-0.8,0-1.2c1.3-0.2,2.5-0.6,2.9-2c0.2-2.5,1.8-1.5,3.1-1.1
		c1.5,0.1,2.7-0.2,2.8-2c0.1-0.3,0.3-0.5,0.7-0.5l-0.1-0.4l-0.1,0.4c-0.5-0.1-0.9,0.1-1.2,0.4c-2.2-0.7-5,0.1-6.1-2.9
		c-1.3-2.6,0.2-5.7-1.5-8.2c0.1-0.6-0.1-1.1-0.4-1.5l0.1-0.3l-0.2,0.3c0.3,0.4,0.5,0.8,0.5,1.3c-0.2,1.8,1.6,3.2,1.1,5
		c-0.3,0.8-0.4,1.7-0.6,2.5c-0.2,0.6-0.4,1.2-0.7,1.8c-1.7,0-3.5,0-5.2,0c-0.2-0.7-0.5-0.7-1-0.2c-2.3,1.7-5.2-0.2-7.6,1.3
		c-1.3,0.9-2.5,1-3.1,3.4c-1.1,4.8-4.8,8.6-8,12.3c-1.4,1.6-4.5,0.3-5.3,3.1c-0.4,0.2-0.6,0.5-0.7,0.9c-0.2,0-0.4,0-0.5-0.1
		c-0.1,0.4-0.4,0.7-0.8,0.9c-0.4-0.3-0.7-0.6-1.1-0.9s-0.4-0.8-0.5-1.2c0.1,0.5,0,0.9-0.4,1.2c-1.3,1.7,0.2,3.3,0.1,4.9
		c0.3,0.3,0.5,0.7,0.5,1.2c-0.1,0.2-0.1,0.4-0.2,0.6C114.6,162.1,114.4,162.2,114.3,162.4z"/>
	<path class="st1" d="M10.5,79c0.6,0.3,0.9,0.8,0.7,1.4c-0.2,0.6-0.6,0.4-0.9,0C10.3,79.9,10.4,79.5,10.5,79z"/>
</g>
<g>
	<g>
		<path class="st2" d="M103,144.1c-3.7,0-6.7,3-6.7,6.7c0,4.6,6,11.4,6.3,11.6c0.2,0.3,0.7,0.3,0.9,0c0.3-0.3,6.3-7,6.3-11.6
			C109.8,147.1,106.7,144.1,103,144.1z M103,154.2c-1.9,0-3.4-1.5-3.4-3.4c0-1.9,1.5-3.4,3.4-3.4s3.4,1.5,3.4,3.4
			S104.9,154.2,103,154.2z"/>
	</g>
</g>
<g>
	<g>
		<path class="st2" d="M6.7,73C3,73,0,76,0,79.7C0,84.3,6,91,6.3,91.3c0.2,0.3,0.7,0.3,0.9,0c0.3-0.3,6.3-7,6.3-11.6
			C13.5,76,10.4,73,6.7,73z M6.7,83.1c-1.9,0-3.4-1.5-3.4-3.4s1.5-3.4,3.4-3.4s3.4,1.5,3.4,3.4S8.6,83.1,6.7,83.1z"/>
	</g>
</g>
<g>
	<g>
		<path class="st2" d="M41.7,44.5c-3.7,0-6.7,3-6.7,6.7c0,4.6,6,11.4,6.3,11.6c0.2,0.3,0.7,0.3,0.9,0c0.3-0.3,6.3-7,6.3-11.6
			C48.4,47.5,45.4,44.5,41.7,44.5z M41.7,54.6c-1.9,0-3.4-1.5-3.4-3.4s1.5-3.4,3.4-3.4c1.9,0,3.4,1.5,3.4,3.4S43.6,54.6,41.7,54.6z"
			/>
	</g>
</g>
<g>
	<g>
		<path class="st2" d="M129.5,35.2c-3.7,0-6.7,3-6.7,6.7c0,4.6,6,11.4,6.3,11.6c0.2,0.3,0.7,0.3,0.9,0c0.3-0.3,6.3-7,6.3-11.6
			C136.2,38.2,133.2,35.2,129.5,35.2z M129.5,45.3c-1.9,0-3.4-1.5-3.4-3.4s1.5-3.4,3.4-3.4c1.9,0,3.4,1.5,3.4,3.4
			C132.9,43.8,131.3,45.3,129.5,45.3z"/>
	</g>
</g>
<g>
	<g>
		<path class="st2" d="M103,25.8c-3.7,0-6.7,3-6.7,6.7c0,4.6,6,11.4,6.3,11.6c0.2,0.3,0.7,0.3,0.9,0c0.3-0.3,6.3-7,6.3-11.6
			C109.8,28.8,106.7,25.8,103,25.8z M103,35.9c-1.9,0-3.4-1.5-3.4-3.4s1.5-3.4,3.4-3.4s3.4,1.5,3.4,3.4S104.9,35.9,103,35.9z"/>
	</g>
</g>
</svg>