<svg xmlns="http://www.w3.org/2000/svg" xmlns:xlink="http://www.w3.org/1999/xlink" preserveAspectRatio="xMidYMid" width="22" height="17" viewBox="0 0 22 17">
  <defs>
    <style>
      .cls-1 {
        fill: #040404;
        fill-rule: evenodd;
      }
    </style>
  </defs>
  <path d="M21.000,6.999 L19.000,6.999 L19.000,9.000 C19.000,9.552 18.552,10.000 18.000,10.000 C17.448,10.000 17.000,9.552 17.000,9.000 L17.000,6.999 L15.000,6.999 C14.448,6.999 14.000,6.552 14.000,5.999 C14.000,5.447 14.448,5.000 15.000,5.000 L17.000,5.000 L17.000,2.999 C17.000,2.448 17.448,1.999 18.000,1.999 C18.552,1.999 19.000,2.448 19.000,2.999 L19.000,5.000 L21.000,5.000 C21.552,5.000 22.000,5.447 22.000,5.999 C22.000,6.552 21.552,6.999 21.000,6.999 ZM13.261,17.000 C12.895,17.000 12.592,16.723 12.545,16.365 L12.538,16.365 L12.538,13.189 C12.538,11.840 11.459,10.746 10.127,10.746 L3.810,10.746 C2.478,10.746 1.398,11.840 1.398,13.189 L1.398,16.005 C1.429,16.087 1.447,16.174 1.447,16.267 C1.447,16.672 1.123,17.000 0.723,17.000 C0.357,17.000 0.054,16.723 0.007,16.365 L-0.000,16.365 L-0.000,16.267 L-0.000,16.267 L-0.000,16.267 L-0.000,12.896 C-0.000,11.007 1.511,9.477 3.376,9.477 L10.609,9.477 C12.473,9.477 13.985,11.007 13.985,12.896 L13.985,16.365 L13.978,16.365 C13.930,16.723 13.628,17.000 13.261,17.000 ZM6.848,8.402 C4.557,8.402 2.700,6.521 2.700,4.201 C2.700,1.880 4.557,-0.001 6.848,-0.001 C9.138,-0.001 10.995,1.880 10.995,4.201 C10.995,6.521 9.138,8.402 6.848,8.402 ZM6.896,1.465 C5.378,1.465 4.147,2.712 4.147,4.250 C4.147,5.787 5.378,7.034 6.896,7.034 C8.414,7.034 9.645,5.787 9.645,4.250 C9.645,2.712 8.414,1.465 6.896,1.465 Z" class="cls-1"/>
</svg>
