<svg xmlns="http://www.w3.org/2000/svg" xmlns:xlink="http://www.w3.org/1999/xlink" preserveAspectRatio="xMidYMid" width="19" height="17" viewBox="0 0 19 17">
  <defs>
    <style>
      .cls-1 {
        fill: #040404;
        fill-rule: evenodd;
      }
    </style>
  </defs>
  <path d="M19.000,16.267 L19.000,16.364 L18.993,16.364 C18.946,16.723 18.643,17.000 18.277,17.000 C17.910,17.000 17.608,16.723 17.560,16.364 L17.553,16.364 L17.553,13.189 C17.553,11.909 16.581,10.861 15.345,10.756 C15.343,10.755 14.894,10.575 14.997,10.014 C15.098,9.467 15.724,9.480 15.728,9.480 C17.544,9.535 19.000,11.043 19.000,12.896 L19.000,16.267 L19.000,16.267 L19.000,16.267 ZM12.700,8.334 L12.700,8.333 C12.651,8.346 12.598,8.353 12.538,8.353 C12.165,8.353 11.712,8.274 11.670,7.767 C11.665,7.427 11.881,7.098 12.202,7.043 L12.196,7.027 C13.626,6.929 14.756,5.723 14.756,4.250 C14.756,2.777 13.628,1.572 12.199,1.473 L12.203,1.454 C11.891,1.395 11.718,1.106 11.718,0.757 C11.718,0.366 12.031,0.048 12.417,0.048 C12.445,0.048 12.472,0.050 12.499,0.054 L12.503,0.036 C14.536,0.306 16.107,2.067 16.107,4.201 C16.107,6.264 14.637,7.980 12.700,8.334 ZM6.848,8.402 C4.557,8.402 2.700,6.521 2.700,4.201 C2.700,1.881 4.557,-0.001 6.848,-0.001 C9.138,-0.001 10.995,1.881 10.995,4.201 C10.995,6.521 9.138,8.402 6.848,8.402 ZM6.896,1.465 C5.378,1.465 4.147,2.712 4.147,4.250 C4.147,5.787 5.378,7.034 6.896,7.034 C8.414,7.034 9.645,5.787 9.645,4.250 C9.645,2.712 8.414,1.465 6.896,1.465 ZM10.609,9.477 C12.473,9.477 13.985,11.008 13.985,12.896 L13.985,16.364 L13.978,16.364 C13.930,16.723 13.628,17.000 13.261,17.000 C12.895,17.000 12.592,16.723 12.545,16.364 L12.538,16.364 L12.538,13.189 C12.538,11.840 11.459,10.747 10.127,10.747 L3.810,10.747 C2.478,10.747 1.398,11.840 1.398,13.189 L1.398,16.005 C1.429,16.087 1.447,16.174 1.447,16.267 C1.447,16.672 1.123,17.000 0.723,17.000 C0.357,17.000 0.054,16.723 0.007,16.364 L-0.000,16.364 L-0.000,16.267 L-0.000,16.267 L-0.000,16.267 L-0.000,12.896 C-0.000,11.008 1.511,9.477 3.376,9.477 L10.609,9.477 Z" class="cls-1"/>
</svg>
