<svg xmlns="http://www.w3.org/2000/svg" xmlns:xlink="http://www.w3.org/1999/xlink" preserveAspectRatio="xMidYMid" width="20" height="15" viewBox="0 0 20 15">
  <defs>
    <style>
      .cls-1 {
        fill: #040404;
        fill-rule: evenodd;
      }
    </style>
  </defs>
  <path d="M10.000,14.999 C3.333,14.999 -0.000,7.534 -0.000,7.534 C-0.000,7.534 3.333,-0.001 10.000,-0.001 C16.667,-0.001 20.000,7.500 20.000,7.500 C20.000,7.500 16.667,14.999 10.000,14.999 ZM10.000,1.666 C5.594,1.666 2.812,5.854 1.876,7.531 C2.813,9.191 5.594,13.333 10.000,13.333 C14.405,13.333 17.186,9.170 18.125,7.500 C17.188,5.833 14.406,1.666 10.000,1.666 ZM10.000,10.833 C8.159,10.833 6.667,9.341 6.667,7.500 C6.667,5.658 8.159,4.166 10.000,4.166 C11.841,4.166 13.333,5.658 13.333,7.500 C13.333,9.341 11.841,10.833 10.000,10.833 ZM10.000,5.833 C9.081,5.833 8.333,6.581 8.333,7.500 C8.333,8.419 9.081,9.167 10.000,9.167 C10.919,9.167 11.667,8.419 11.667,7.500 C11.667,6.581 10.919,5.833 10.000,5.833 Z" class="cls-1"/>
</svg>
