<?xml version="1.0" encoding="utf-8"?>
<!-- Generator: Adobe Illustrator 17.1.0, SVG Export Plug-In . SVG Version: 6.00 Build 0)  -->
<!DOCTYPE svg PUBLIC "-//W3C//DTD SVG 1.1//EN" "http://www.w3.org/Graphics/SVG/1.1/DTD/svg11.dtd">
<svg version="1.1" id="Capa_1" xmlns="http://www.w3.org/2000/svg" xmlns:xlink="http://www.w3.org/1999/xlink" x="0px" y="0px"
	 viewBox="0 0 512 512" enable-background="new 0 0 512 512" xml:space="preserve">
<circle fill="#DA2427" cx="256" cy="256" r="240.5"/>
<g>
	<g>
		<path fill="#FFFFFF" d="M368,320.8c0.5,3.6-0.6,6.8-3.3,9.5l-31.6,31.3c-1.4,1.6-3.3,2.9-5.6,4c-2.3,1.1-4.6,1.8-6.8,2.1
			c-0.2,0-0.6,0-1.4,0.1c-0.8,0.1-1.8,0.1-3.1,0.1c-3,0-7.9-0.5-14.6-1.5c-6.7-1-15-3.6-24.7-7.6c-9.7-4-20.8-10.1-33.1-18.2
			c-12.3-8.1-25.5-19.2-39.4-33.2c-11.1-10.9-20.3-21.4-27.5-31.3c-7.3-10-13.1-19.2-17.6-27.7c-4.4-8.5-7.8-16.1-10-23
			c-2.2-6.9-3.7-12.8-4.5-17.8c-0.8-5-1.1-8.9-0.9-11.8c0.2-2.8,0.2-4.4,0.2-4.7c0.3-2.2,1-4.5,2.1-6.8s2.5-4.2,4-5.6l31.6-31.6
			c2.2-2.2,4.7-3.3,7.6-3.3c2.1,0,3.9,0.6,5.5,1.8c1.6,1.2,2.9,2.7,4,4.4l25.4,48.2c1.4,2.5,1.8,5.3,1.2,8.3c-0.6,3-2,5.5-4,7.6
			l-11.6,11.6c-0.3,0.3-0.6,0.8-0.8,1.5c-0.2,0.7-0.4,1.3-0.4,1.8c0.6,3.3,2.1,7.1,4.3,11.4c1.9,3.8,4.8,8.4,8.8,13.9
			c4,5.5,9.6,11.8,16.9,18.9c7.1,7.3,13.5,12.9,19,17c5.5,4,10.2,7,13.9,8.9c3.7,1.9,6.6,3,8.5,3.4l3,0.6c0.3,0,0.8-0.1,1.5-0.4
			c0.7-0.2,1.2-0.5,1.5-0.8l13.5-13.8c2.9-2.5,6.2-3.8,10-3.8c2.7,0,4.8,0.5,6.4,1.4h0.2l45.8,27.1C365.4,315,367.4,317.7,368,320.8
			z"/>
	</g>
</g>
</svg>
