<svg xmlns="http://www.w3.org/2000/svg" xmlns:xlink="http://www.w3.org/1999/xlink" preserveAspectRatio="xMidYMid" width="13" height="12" viewBox="0 0 13 12">
  <defs>
    <style>
      .cls-1 {
        fill: #2e7cff;
        fill-rule: evenodd;
      }
    </style>
  </defs>
  <path d="M11.500,11.999 C10.671,11.999 10.000,11.328 10.000,10.499 L10.000,1.499 C10.000,0.671 10.671,-0.001 11.500,-0.001 C12.328,-0.001 13.000,0.671 13.000,1.499 L13.000,10.499 C13.000,11.328 12.328,11.999 11.500,11.999 ZM6.500,11.999 C5.672,11.999 5.000,11.328 5.000,10.499 L5.000,6.499 C5.000,5.671 5.672,4.999 6.500,4.999 C7.328,4.999 8.000,5.671 8.000,6.499 L8.000,10.499 C8.000,11.328 7.328,11.999 6.500,11.999 ZM1.500,11.999 C0.672,11.999 -0.000,11.328 -0.000,10.499 L-0.000,4.500 C-0.000,3.671 0.672,2.999 1.500,2.999 C2.328,2.999 3.000,3.671 3.000,4.500 L3.000,10.499 C3.000,11.328 2.328,11.999 1.500,11.999 Z" class="cls-1"/>
</svg>
