<svg xmlns="http://www.w3.org/2000/svg" xmlns:xlink="http://www.w3.org/1999/xlink" preserveAspectRatio="xMidYMid" width="68" height="57" viewBox="0 0 68 57">
  <defs>
    <style>
      .cls-1 {
        fill: #a9c9dd;
      }

      .cls-1, .cls-2, .cls-3 {
        fill-rule: evenodd;
      }

      .cls-2 {
        fill: #fff;
      }

      .cls-3 {
        fill: #c8daea;
      }
    </style>
  </defs>
  <path d="M36.519,44.351 L27.813,52.795 C27.813,52.795 26.525,53.710 25.004,53.640 C23.483,53.569 25.285,42.381 25.285,42.381 L26.970,37.595 L33.149,39.566 L36.519,44.351 Z" class="cls-1"/>
  <path d="M52.246,56.736 C52.246,56.736 56.066,58.200 57.301,54.203 C58.537,50.206 67.974,4.099 67.974,4.099 C67.974,4.099 68.704,-1.587 62.918,0.440 C57.133,2.466 1.975,24.084 1.975,24.084 C1.975,24.084 -2.294,26.224 1.694,28.588 C1.638,28.588 17.983,33.373 17.983,33.373 L18.545,33.655 L26.128,37.032 L26.689,37.595 L52.246,56.736 Z" class="cls-2"/>
  <path d="M55.616,11.418 C55.616,11.418 56.499,9.487 54.212,10.573 C51.925,11.659 17.983,33.373 17.983,33.373 L23.319,51.669 C23.319,51.669 24.001,54.002 25.566,53.640 C25.832,53.630 26.128,47.729 26.128,47.729 L26.689,37.595 L55.616,11.418 Z" class="cls-3"/>
</svg>
